<?xml version="1.0" standalone="no"?>
<!DOCTYPE svg PUBLIC "-//W3C//DTD SVG 20010904//EN"
 "http://www.w3.org/TR/2001/REC-SVG-20010904/DTD/svg10.dtd">
<svg version="1.0" xmlns="http://www.w3.org/2000/svg"
 width="364.000000pt" height="151.000000pt" viewBox="0 0 364.000000 151.000000"
 preserveAspectRatio="xMidYMid meet">

<g transform="translate(0.000000,151.000000) scale(0.100000,-0.100000)"
fill="#000000" stroke="none">
<path d="M2670 805 c0 -24 3 -25 60 -25 57 0 60 1 60 25 0 24 -3 25 -60 25
-57 0 -60 -1 -60 -25z"/>
<path d="M84 633 c-20 -65 -47 -151 -59 -190 l-23 -73 39 0 c26 0 42 5 45 15
9 22 189 22 198 0 3 -10 19 -15 45 -15 l39 0 -62 188 -63 187 -61 3 -61 3 -37
-118z m138 -59 c15 -49 28 -90 28 -91 0 -2 -29 -3 -65 -3 -36 0 -65 2 -65 6 0
25 56 184 64 181 6 -2 23 -44 38 -93z"/>
<path d="M500 560 l0 -190 40 0 40 0 0 66 0 65 53 -3 52 -3 29 -62 30 -63 43
0 43 0 -36 72 c-35 70 -36 72 -16 87 45 36 55 101 24 161 -23 47 -62 59 -194
59 l-108 1 0 -190z m210 111 c36 -10 49 -54 25 -81 -15 -16 -30 -20 -87 -20
l-68 0 0 55 0 55 53 -1 c28 -1 63 -4 77 -8z"/>
<path d="M970 560 l0 -190 40 0 40 0 0 142 c0 78 3 139 6 135 3 -3 20 -65 38
-139 l31 -133 57 -3 57 -3 10 38 c5 21 21 82 35 136 13 54 27 101 30 104 3 4
6 -57 6 -135 l0 -142 40 0 40 0 0 190 0 190 -68 0 -69 0 -38 -157 c-23 -95
-40 -151 -45 -142 -4 8 -23 78 -41 157 l-33 142 -68 0 -68 0 0 -190z"/>
<path d="M1584 573 c-31 -98 -59 -184 -61 -190 -4 -9 7 -13 35 -13 26 0 42 5
46 15 8 22 191 22 200 0 3 -10 19 -15 45 -15 l39 0 -62 188 -63 187 -61 3 -61
3 -57 -178z m152 15 c15 -46 29 -89 32 -95 3 -10 -13 -13 -62 -13 -36 0 -66 3
-66 8 0 19 54 182 61 182 4 0 20 -37 35 -82z"/>
<path d="M2000 711 l0 -40 120 -3 121 -3 -121 -109 c-114 -103 -120 -111 -120
-147 l0 -39 180 0 180 0 0 35 0 35 -120 0 c-66 0 -120 4 -120 9 0 5 54 57 120
117 115 103 121 110 118 144 l-3 35 -177 3 -178 2 0 -39z"/>
<path d="M2497 743 c-4 -3 -7 -89 -7 -190 l0 -183 150 0 150 0 0 35 0 34 -107
3 -108 3 -3 38 -3 37 110 0 111 0 0 40 0 40 -111 0 -110 0 3 38 3 37 108 3
107 3 0 34 0 35 -143 0 c-79 0 -147 -3 -150 -7z"/>
<path d="M2940 560 l0 -190 40 0 39 0 3 143 3 142 36 -140 35 -140 56 -3 57
-3 10 38 c5 21 21 82 35 136 13 54 27 101 30 104 3 4 6 -57 6 -135 l0 -142 40
0 40 0 0 190 0 190 -69 0 -69 0 -37 -156 c-20 -85 -39 -153 -42 -150 -3 3 -22
72 -42 153 l-36 148 -68 3 -67 3 0 -191z"/>
<path d="M2427 162 c-22 -25 -22 -85 1 -104 26 -23 50 -28 77 -18 36 14 32 33
-5 25 -39 -9 -60 8 -60 46 0 36 40 60 64 40 16 -13 32 1 21 19 -11 17 -80 12
-98 -8z"/>
<path d="M2620 110 l0 -70 50 0 c28 0 50 5 50 10 0 6 -16 10 -35 10 l-35 0 0
60 c0 47 -3 60 -15 60 -12 0 -15 -14 -15 -70z"/>
<path d="M2800 158 c-37 -40 -22 -98 30 -117 53 -18 100 13 100 66 0 67 -84
100 -130 51z m81 -8 c23 -13 26 -62 4 -80 -42 -35 -97 30 -60 70 21 23 29 24
56 10z"/>
<path d="M3010 130 c0 -41 5 -56 25 -75 13 -14 31 -25 40 -25 9 0 27 11 40 25
20 19 25 34 25 75 0 38 -4 50 -15 50 -11 0 -15 -12 -15 -49 0 -95 -62 -97 -68
-2 -2 36 -7 51 -18 51 -10 0 -14 -13 -14 -50z"/>
<path d="M3230 110 l0 -70 49 0 c42 0 53 4 70 26 27 35 26 59 -4 89 -18 19
-35 25 -70 25 l-45 0 0 -70z m90 30 c11 -11 20 -24 20 -30 0 -17 -39 -50 -60
-50 -17 0 -20 7 -20 50 0 43 3 50 20 50 11 0 29 -9 40 -20z"/>
</g>
</svg>
