<?xml version="1.0" standalone="no"?>
<!DOCTYPE svg PUBLIC "-//W3C//DTD SVG 20010904//EN"
 "http://www.w3.org/TR/2001/REC-SVG-20010904/DTD/svg10.dtd">
<svg version="1.0" xmlns="http://www.w3.org/2000/svg"
 width="568.000000pt" height="300.000000pt" viewBox="0 0 568.000000 300.000000"
 preserveAspectRatio="xMidYMid meet">

<g transform="translate(0.000000,300.000000) scale(0.100000,-0.100000)"
fill="#000000" stroke="none">
<path d="M0 2900 c0 -89 2 -100 18 -100 9 0 23 -9 30 -20 11 -18 10 -20 -8
-20 -11 0 -20 5 -20 10 0 6 -4 10 -10 10 -6 0 -10 -38 -10 -94 0 -89 1 -94 20
-89 11 3 20 1 20 -5 0 -6 18 -13 39 -17 22 -4 46 -14 53 -22 28 -35 148 -69
148 -43 0 6 -4 10 -10 10 -5 0 -10 5 -10 10 0 14 33 13 47 -1 7 -7 32 -13 55
-15 42 -2 81 -16 138 -49 17 -10 28 -11 37 -3 21 17 16 23 -37 48 -34 16 -52
31 -56 47 -4 13 -13 23 -21 23 -8 0 -12 4 -9 9 4 5 0 11 -6 14 -9 3 -4 14 15
35 l29 30 -23 23 c-13 13 -23 29 -21 35 1 7 -9 15 -23 18 -14 4 -25 11 -25 17
0 6 -9 8 -20 4 -15 -5 -22 0 -30 21 -9 22 -15 26 -39 21 -36 -7 -51 8 -44 44
4 22 2 29 -11 29 -9 0 -16 7 -16 15 0 8 -6 15 -14 15 -16 0 -26 21 -26 56 0
21 -4 24 -20 19 -11 -4 -20 -2 -20 4 0 7 -24 11 -60 11 l-60 0 0 -100z m397
-332 c-3 -8 -6 -5 -6 6 -1 11 2 17 5 13 3 -3 4 -12 1 -19z"/>
<path d="M1019 2981 c13 -10 31 -16 40 -14 9 2 29 -7 44 -21 16 -14 35 -26 43
-26 7 0 14 -9 14 -20 0 -13 7 -20 20 -20 11 0 20 -4 20 -10 0 -6 9 -6 26 0 14
6 35 10 46 10 17 0 20 -5 15 -29 -5 -26 -3 -29 25 -35 17 -3 41 -6 53 -6 13 0
42 -11 65 -24 34 -19 39 -25 24 -29 -14 -3 -13 -5 7 -6 14 0 29 -5 35 -10 12
-11 60 -22 67 -15 9 10 -4 34 -19 34 -8 0 -14 7 -14 15 0 12 4 13 18 6 9 -5
34 -13 54 -19 32 -9 36 -8 30 6 -3 10 -13 23 -21 30 -14 11 -14 11 3 6 10 -4
21 -1 26 7 7 10 14 7 34 -14 28 -30 36 -33 36 -13 0 9 8 12 25 8 14 -2 25 -8
25 -13 0 -5 3 -8 8 -8 28 5 20 -5 -12 -15 -22 -7 -41 -17 -43 -23 -5 -13 62
-37 76 -28 8 4 23 -12 47 -53 0 -1 9 0 18 4 13 5 14 9 5 20 -7 8 -9 17 -6 20
8 9 47 -19 47 -34 0 -20 26 -42 48 -42 13 0 24 -10 30 -29 9 -27 8 -30 -11
-33 -12 -2 -26 -13 -32 -25 -5 -12 -21 -24 -35 -26 -24 -4 -24 -4 6 -11 26 -7
31 -12 30 -37 -1 -16 -5 -28 -11 -28 -23 3 -38 -1 -31 -8 4 -4 36 -6 71 -5 38
2 65 -1 70 -7 3 -6 11 -9 16 -5 5 3 16 0 24 -6 8 -7 24 -10 34 -7 11 3 22 0
24 -6 2 -8 20 -7 63 2 90 19 109 26 106 36 -3 11 -6 11 -67 1 -40 -6 -40 -6
-6 5 18 5 35 18 38 27 3 13 15 17 49 17 30 0 44 4 44 13 0 8 9 12 21 10 26 -4
49 -35 34 -46 -5 -4 -19 -17 -29 -29 -19 -23 -19 -23 0 -23 10 0 26 5 34 10
12 8 13 11 1 19 -10 6 -10 10 -1 16 7 4 16 2 20 -5 4 -7 16 -9 28 -6 11 4 23
2 27 -3 3 -6 19 -8 35 -4 23 4 30 2 30 -11 0 -11 -9 -16 -26 -16 -30 0 -94
-28 -94 -41 0 -15 42 -10 61 7 11 10 39 17 66 18 26 2 56 6 65 10 13 6 16 3
11 -16 -3 -14 -1 -18 4 -12 16 23 80 30 208 23 72 -4 141 -5 155 -3 63 10
-161 -49 -365 -96 -77 -18 -257 -60 -400 -95 -143 -35 -294 -71 -335 -80 -41
-10 -127 -31 -190 -47 -242 -63 -426 -108 -443 -108 -10 0 -15 -4 -12 -10 3
-5 8 -153 10 -327 5 -307 5 -318 25 -325 19 -7 20 -3 20 51 0 44 4 60 16 65
38 15 44 8 44 -54 0 -77 18 -79 22 -2 l3 57 43 3 42 3 0 -61 c0 -45 3 -61 13
-57 7 2 13 23 13 48 1 24 2 50 3 57 1 7 17 12 46 12 l45 0 0 -66 c0 -58 2 -64
15 -50 9 9 15 34 15 66 0 32 4 49 10 45 6 -3 10 -37 10 -74 0 -92 -13 -102
-97 -75 -15 5 -16 4 -3 -6 12 -9 9 -10 -14 -5 -27 6 -28 5 -15 -12 11 -13 8
-13 -13 3 -23 18 -39 21 -111 19 -46 -1 -100 -8 -120 -14 -20 -7 -46 -9 -58
-6 -12 4 -24 3 -28 -3 -3 -5 -16 -13 -29 -16 -21 -7 -22 -5 -16 18 6 24 4 25
-17 17 -13 -5 -23 -14 -22 -19 1 -6 -4 -13 -12 -15 -15 -7 -40 17 -31 31 3 5
-1 9 -9 9 -8 0 -15 -5 -15 -11 0 -6 -4 -5 -9 3 -7 11 -11 10 -20 -7 -12 -23
-80 -40 -173 -43 -32 -2 -58 -6 -58 -11 0 -5 8 -8 18 -7 9 1 34 1 55 0 40 -1
52 -21 12 -21 -19 0 -23 -4 -18 -18 5 -14 2 -13 -18 5 -20 18 -26 19 -36 8 -7
-8 -13 -20 -13 -27 -1 -9 -4 -9 -13 2 -7 9 -22 15 -34 14 -13 -1 -20 3 -16 11
2 7 -1 16 -8 21 -8 4 -10 3 -5 -4 4 -7 2 -12 -4 -12 -7 0 -10 -7 -6 -15 3 -8
1 -15 -5 -15 -6 0 -7 -6 -3 -13 6 -9 4 -9 -7 0 -7 7 -21 13 -31 13 -10 0 -18
7 -18 15 0 9 -10 15 -25 16 -77 2 -94 2 -111 -5 -10 -5 -49 -9 -86 -10 -36 0
-70 -4 -73 -8 -4 -4 -16 -3 -27 3 -14 7 -23 7 -33 -1 -8 -7 -19 -8 -26 -4 -17
10 -51 11 -76 2 -13 -4 -23 -3 -23 2 0 5 -12 2 -27 -5 -15 -8 -30 -10 -33 -5
-3 4 -27 8 -53 7 l-47 -2 0 -62 c0 -62 0 -63 28 -63 15 -1 41 -7 57 -15 l30
-13 -42 -1 c-67 -1 -73 -7 -73 -63 l0 -49 32 5 c91 14 239 29 243 24 3 -3 -38
-11 -92 -17 -54 -6 -117 -14 -140 -17 l-43 -5 0 -89 0 -89 28 5 c91 16 216 37
350 59 84 13 168 27 187 31 20 3 35 2 35 -3 0 -6 -33 -15 -72 -21 -40 -7 -175
-29 -300 -49 l-228 -38 0 -177 c0 -171 1 -178 20 -178 11 0 20 -5 20 -11 0 -6
-9 -13 -20 -16 -19 -5 -20 -14 -20 -149 l0 -144 777 0 776 0 86 42 c47 24 91
48 98 55 7 6 23 15 36 19 12 3 33 14 47 24 57 39 204 111 216 106 8 -3 13 -1
11 5 -1 6 8 15 21 20 14 5 22 5 22 -2 0 -6 13 -8 30 -5 17 2 28 0 25 -5 -7
-11 -105 -69 -205 -121 -41 -22 -79 -43 -85 -48 -31 -25 -139 -72 -143 -62 -2
7 -8 12 -14 12 -7 0 -7 -5 1 -13 6 -8 8 -17 4 -20 -3 -4 811 -7 1811 -7 1451
0 1816 3 1810 13 -6 9 -4 9 7 0 9 -9 61 -13 181 -13 l169 0 -2 402 c0 264 -4
396 -10 385 -6 -9 -7 -22 -3 -29 4 -6 3 -8 -4 -4 -6 3 -14 1 -18 -6 -12 -20
-22 30 -16 80 4 36 2 42 -11 36 -9 -3 -19 -22 -22 -42 -13 -80 -17 -92 -26
-86 -5 3 -7 9 -5 13 3 4 -1 8 -9 8 -9 0 -12 -10 -8 -34 4 -21 2 -33 -6 -33 -6
0 -11 6 -12 13 -1 6 -2 21 -3 32 -1 11 -3 45 -5 75 -3 59 -5 58 -16 -5 -6 -35
-8 -38 -20 -22 -14 20 -19 113 -6 121 5 3 23 3 40 0 27 -6 30 -9 19 -23 -11
-14 -11 -14 3 -3 9 7 19 26 23 42 3 17 10 30 16 30 6 0 8 -10 4 -25 -5 -18 -2
-25 9 -25 8 0 17 3 20 8 2 4 2 1 1 -6 -2 -8 9 -12 31 -12 l35 0 0 195 0 195
-70 0 c-56 0 -70 3 -70 15 0 12 14 15 70 15 l70 0 0 845 0 845 -2342 0 c-2279
0 -2342 -1 -2319 -19z m781 -151 c-19 -13 -30 -13 -30 0 0 6 10 10 23 10 18 0
19 -2 7 -10z m2274 -226 c9 -25 7 -64 -4 -64 -14 0 -12 -56 3 -81 10 -17 10
-23 0 -26 -10 -3 -13 -36 -13 -118 l0 -114 -32 -5 c-149 -25 -233 -37 -458
-66 -47 -6 -129 -20 -184 -31 -54 -11 -106 -18 -115 -16 -9 2 8 7 37 12 28 4
52 10 52 14 0 3 -12 14 -27 23 -16 10 -21 17 -13 17 8 0 24 -6 34 -14 36 -27
41 -19 38 61 -3 54 0 74 7 69 6 -3 8 -11 5 -17 -4 -6 -2 -8 4 -4 6 3 35 -13
65 -38 30 -24 65 -47 78 -50 14 -5 19 -4 12 1 -7 5 -15 32 -17 61 -2 28 -7 55
-9 59 -11 18 13 117 34 139 13 13 18 24 13 24 -5 0 -2 5 6 10 12 8 10 10 -10
11 -14 1 -28 1 -32 0 -5 0 -8 3 -8 8 0 8 24 20 50 26 3 1 22 8 42 17 20 9 62
20 92 23 31 4 56 12 56 17 0 6 7 7 16 4 9 -4 22 -2 29 4 6 5 20 11 31 13 10 2
26 7 34 10 28 11 135 36 156 36 12 1 25 -6 28 -15z m1415 -461 c-2 -311 -14
-637 -17 -469 -2 81 -5 97 -16 93 -11 -4 -13 -1 -9 10 5 11 3 14 -6 8 -11 -6
-11 -3 0 16 7 13 12 25 11 27 -7 9 0 32 8 27 18 -11 11 11 -9 29 -19 17 -19
17 -14 -5 6 -20 5 -21 -9 -8 -11 9 -13 19 -7 31 13 25 11 28 -13 24 -20 -3
-23 -8 -20 -41 3 -25 0 -35 -7 -31 -7 4 -11 -1 -11 -13 0 -12 5 -21 10 -21 6
0 10 -5 10 -11 0 -5 -4 -8 -9 -4 -5 3 -12 -3 -14 -12 -3 -10 -5 -2 -6 17 0 20
-8 46 -17 58 -8 12 -10 22 -5 22 6 0 11 -4 11 -10 0 -5 7 -7 16 -3 9 3 13 12
9 22 -11 26 -13 61 -4 61 4 0 10 8 13 18 3 9 4 5 2 -9 -2 -20 1 -26 13 -24 9
2 19 4 24 4 4 1 7 13 7 27 0 14 -4 23 -9 20 -5 -3 -11 2 -13 12 -6 21 15 87
28 87 5 0 7 5 5 10 -3 8 -5 20 -10 44 -1 2 -8 -3 -17 -10 -15 -12 -16 -11 -11
6 15 56 18 80 7 65 -9 -12 -11 -9 -7 13 5 31 0 33 -28 11 -17 -12 -20 -27 -20
-89 0 -81 -14 -106 -16 -27 -1 36 -3 41 -8 22 -6 -23 -8 -23 -14 -6 -4 10 -5
27 -2 37 5 15 1 19 -17 18 -13 0 -17 -3 -11 -6 8 -3 11 -14 7 -30 -5 -18 -3
-24 5 -19 6 4 11 2 11 -3 0 -6 -7 -11 -15 -11 -11 0 -15 -11 -15 -39 0 -25 5
-41 15 -45 21 -8 19 -29 -7 -73 l-23 -38 -5 65 c-8 98 -18 30 -13 -83 3 -84 2
-90 -11 -67 -8 14 -18 23 -23 20 -4 -3 -9 17 -10 44 -1 27 1 46 5 42 7 -7 8
-11 11 -37 0 -5 6 -7 12 -3 8 4 7 9 -2 15 -8 5 -11 9 -6 9 4 0 1 10 -7 23 -9
12 -13 36 -11 54 2 18 0 35 -6 38 -5 4 -5 13 -1 23 5 10 4 43 -3 77 -7 33 -13
53 -14 45 -1 -13 -2 -13 -11 0 -11 17 -13 9 -10 -32 1 -16 -3 -28 -9 -28 -7 0
-9 -10 -6 -23 5 -17 2 -24 -9 -24 -8 0 -15 7 -15 16 0 9 -3 70 -6 137 l-6 121
36 1 c34 1 35 1 35 -38 0 -21 -4 -42 -10 -45 -5 -3 -10 -18 -10 -32 0 -15 3
-23 7 -20 3 4 11 3 17 -2 8 -7 10 13 8 69 l-4 78 53 7 c30 3 62 9 72 11 12 4
17 0 17 -16 0 -12 5 -31 11 -42 9 -16 8 -23 -2 -29 -10 -6 -10 -9 -2 -9 15 0
36 37 28 50 -3 5 0 12 6 16 9 5 7 11 -6 21 -18 12 -18 13 2 13 27 0 35 -33 17
-68 -16 -31 -18 -62 -4 -62 10 0 31 34 29 47 -1 4 -1 27 0 50 1 39 3 42 34 46
17 2 36 5 40 5 4 1 7 -118 6 -265z m-2422 251 c-3 -3 -12 -4 -19 -1 -8 3 -5 6
6 6 11 1 17 -2 13 -5z m2029 -69 c-4 -14 -11 -23 -16 -20 -6 4 -10 -9 -10 -29
0 -19 -5 -38 -12 -42 -7 -5 -8 -2 -3 7 5 9 5 11 -2 4 -15 -14 -24 -73 -13 -80
6 -3 10 1 10 9 0 9 7 16 15 16 8 0 15 -7 15 -15 0 -8 6 -15 13 -15 8 0 9 -3 1
-8 -6 -4 -16 -17 -22 -29 -10 -18 -9 -23 8 -28 24 -8 17 -25 -10 -25 -10 0
-21 8 -23 18 -4 12 -5 11 -6 -6 0 -12 -7 -25 -15 -28 -9 -3 -12 -13 -9 -22 4
-11 -2 -8 -15 7 -12 13 -19 28 -15 34 3 6 1 7 -6 3 -6 -4 -9 -12 -6 -17 4 -5
0 -9 -7 -9 -20 0 -7 103 15 128 12 13 15 28 11 50 -7 35 -20 42 -27 15 -3 -11
-5 -7 -6 10 0 15 3 27 8 27 4 0 7 11 6 24 -3 20 3 25 33 32 21 4 45 9 55 10
10 1 20 4 24 8 11 11 16 -2 9 -29z m-238 -22 c-3 -36 2 -54 13 -47 8 5 9 -11
4 -55 -4 -38 -3 -61 3 -61 5 0 13 -21 17 -46 3 -25 9 -43 12 -40 3 3 19 -8 35
-24 15 -17 33 -30 38 -30 6 0 10 -15 10 -32 0 -24 3 -29 10 -18 14 22 23 5 10
-20 -8 -15 -8 -20 -1 -16 8 5 11 -11 11 -49 0 -44 -3 -56 -13 -52 -10 4 -13
-1 -10 -16 4 -20 0 -22 -39 -22 -24 0 -48 3 -55 8 -12 7 -102 2 -135 -9 -10
-3 -18 -12 -18 -20 0 -14 6 -24 37 -58 12 -14 16 -43 14 -126 -1 -43 -7 -66
-28 -98 -29 -45 -53 -52 -87 -27 -25 19 -55 19 -62 2 -5 -14 -62 -19 -79 -7
-11 8 -43 6 -85 -5 -38 -10 -69 37 -74 112 -2 32 -5 62 -5 66 -1 5 -5 5 -11 2
-5 -3 -10 1 -10 9 0 18 -16 21 -25 6 -4 -6 -10 -8 -15 -5 -5 3 -11 1 -15 -5
-3 -5 1 -10 9 -10 9 0 16 -4 16 -9 0 -5 8 -8 17 -7 12 0 19 -7 21 -21 3 -18
-2 -23 -17 -23 -12 0 -21 -6 -21 -14 0 -16 27 -29 42 -20 6 4 8 1 6 -7 -3 -8
-11 -13 -17 -12 -6 2 -11 -5 -11 -14 0 -9 -3 -13 -7 -10 -3 4 -14 0 -24 -9 -9
-8 -42 -18 -73 -21 -31 -3 -59 -9 -61 -14 -3 -4 -19 -4 -35 1 -17 5 -30 6 -30
3 0 -3 -15 6 -32 19 -31 23 -34 24 -50 8 -18 -16 -49 -21 -175 -24 -61 -1 -73
1 -77 16 -6 24 -37 23 -43 -1 -6 -25 -29 -34 -53 -21 -23 12 -80 13 -80 2 0
-22 -87 2 -92 24 -3 13 -7 13 -30 -5 -21 -17 -32 -19 -51 -12 -19 8 -29 6 -38
-5 -10 -12 -23 -14 -51 -10 -30 5 -38 3 -38 -9 0 -23 -10 -19 -48 21 l-35 36
-23 -27 c-22 -26 -26 -27 -54 -15 -16 7 -30 17 -30 24 0 6 -10 -4 -22 -21 -29
-41 -38 -41 -38 0 0 21 -3 28 -9 19 -4 -8 -12 -13 -17 -11 -5 1 -13 -8 -19
-20 -11 -23 -20 -27 -30 -11 -8 14 -45 13 -45 -1 0 -8 -5 -7 -16 2 -12 10 -20
10 -35 1 -16 -10 -21 -8 -35 13 -9 14 -20 22 -25 19 -5 -3 -8 25 -8 63 1 56 3
62 9 33 5 -22 8 -27 9 -13 0 12 6 25 11 28 6 3 10 16 10 29 0 14 10 28 25 36
14 7 25 19 25 27 0 7 2 13 4 13 2 0 11 3 20 6 9 3 16 1 16 -5 0 -36 81 -69 93
-37 9 22 93 39 133 26 19 -7 34 -16 34 -21 0 -5 9 -9 19 -9 13 0 21 8 23 22 4
29 54 49 69 28 9 -12 11 -13 16 -1 5 11 7 11 15 0 7 -10 11 -11 14 -3 3 7 14
10 24 7 13 -3 22 1 26 11 11 28 94 -4 94 -36 0 -10 5 -18 10 -18 6 0 10 -14
10 -32 0 -36 7 -35 12 2 5 33 26 70 55 98 28 26 48 28 57 6 3 -9 11 -12 18 -8
8 5 9 2 5 -9 -3 -10 -2 -17 3 -17 19 0 50 -40 50 -65 0 -14 5 -25 10 -25 6 0
10 -10 10 -22 0 -13 7 -31 14 -41 14 -18 14 -17 21 2 3 12 10 21 14 21 4 0 13
11 19 25 6 14 8 25 3 25 -9 0 -61 46 -61 55 0 3 5 5 10 5 6 0 19 9 30 20 11
11 30 20 43 21 185 7 191 7 214 -20 20 -22 23 -23 23 -7 0 12 5 16 15 12 9 -3
15 0 15 9 0 15 19 19 71 16 18 -2 28 5 37 23 10 22 16 24 57 21 26 -1 54 -10
63 -19 11 -10 12 -16 4 -16 -20 0 -13 -31 8 -37 11 -3 20 -10 21 -17 0 -6 5 0
10 13 6 15 14 21 25 17 9 -3 12 -2 9 5 -12 18 17 39 54 39 20 0 51 -9 69 -20
36 -22 74 -19 95 9 6 9 17 16 22 17 29 3 55 18 55 32 0 11 -3 13 -10 6 -6 -6
-27 -8 -48 -4 -22 3 -47 1 -62 -7 -18 -9 -26 -9 -31 -1 -6 9 -11 9 -22 -1 -12
-9 -17 -9 -23 0 -12 20 -8 97 6 113 9 12 10 19 1 30 -9 10 -8 15 4 20 9 3 15
0 15 -10 0 -8 5 -12 10 -9 6 3 10 21 10 38 0 23 10 43 33 67 32 34 52 67 49
83 -1 4 3 7 8 7 6 0 10 7 10 15 0 8 7 15 15 15 8 0 15 7 15 15 0 8 -7 15 -15
15 -8 0 -15 4 -15 10 0 5 7 7 15 4 11 -5 15 1 15 26 0 22 4 29 13 24 10 -6 10
-4 0 7 -23 24 -16 56 15 62 33 6 36 4 27 -22 -3 -12 -14 -21 -23 -21 -13 0
-12 -4 6 -20 12 -12 22 -28 22 -38 1 -15 2 -15 11 1 8 13 14 15 23 8 8 -7 21
-4 41 11 17 11 22 18 13 14 -15 -4 -17 1 -16 39 2 30 7 46 18 49 8 2 16 4 17
5 2 0 2 -7 1 -16z m92 -25 c0 -18 -2 -20 -9 -8 -6 8 -7 18 -5 22 9 14 14 9 14
-14z m-406 -32 c-6 -16 -24 -13 -24 5 0 6 5 7 10 4 6 -3 10 -1 10 6 0 7 2 10
5 7 3 -3 3 -13 -1 -22z m-1277 -3 c-9 -9 -19 -14 -23 -11 -10 10 6 28 24 28
15 0 15 -1 -1 -17z m1213 -13 c0 -5 -5 -10 -11 -10 -5 0 -7 5 -4 10 3 6 8 10
11 10 2 0 4 -4 4 -10z m-160 -20 c0 -11 -4 -20 -10 -20 -5 0 -10 9 -10 20 0
11 5 20 10 20 6 0 10 -9 10 -20z m1070 6 c0 -3 -4 -8 -10 -11 -5 -3 -10 -1
-10 4 0 6 5 11 10 11 6 0 10 -2 10 -4z m-405 -16 c3 -5 1 -10 -4 -10 -6 0 -11
5 -11 10 0 6 2 10 4 10 3 0 8 -4 11 -10z m112 -12 c-3 -8 -6 -5 -6 6 -1 11 2
17 5 13 3 -3 4 -12 1 -19z m-747 -8 c0 -5 -7 -10 -15 -10 -8 0 -15 -5 -15 -11
0 -6 -5 -9 -11 -7 -18 6 -11 23 13 30 13 3 24 6 26 7 1 1 2 -3 2 -9z m-80 -8
c0 -4 -9 -8 -20 -8 -11 0 -20 4 -20 8 0 4 9 8 20 8 11 0 20 -4 20 -8z m915
-22 c3 -5 1 -10 -4 -10 -6 0 -11 5 -11 10 0 6 2 10 4 10 3 0 8 -4 11 -10z
m-1085 -8 c0 -13 -12 -22 -22 -16 -10 6 -1 24 13 24 5 0 9 -4 9 -8z m996 -29
c-10 -10 -19 5 -10 18 6 11 8 11 12 0 2 -7 1 -15 -2 -18z m334 -3 c0 -5 -5
-10 -11 -10 -5 0 -7 5 -4 10 3 6 8 10 11 10 2 0 4 -4 4 -10z m-2397 -67 c-7
-2 -21 -2 -30 0 -10 3 -4 5 12 5 17 0 24 -2 18 -5z m744 -25 c-3 -7 -5 -2 -5
12 0 14 2 19 5 13 2 -7 2 -19 0 -25z m1403 2 c0 -5 -4 -10 -10 -10 -5 0 -10 5
-10 10 0 6 5 10 10 10 6 0 10 -4 10 -10z m180 -10 c0 -5 -4 -10 -10 -10 -5 0
-10 5 -10 10 0 6 5 10 10 10 6 0 10 -4 10 -10z m-256 -34 c-3 -15 -8 -25 -11
-23 -2 3 -1 17 3 31 3 15 8 25 11 23 2 -3 1 -17 -3 -31z m-2407 18 c-3 -3 -12
-4 -19 -1 -8 3 -5 6 6 6 11 1 17 -2 13 -5z m-50 -10 c-3 -3 -12 -4 -19 -1 -8
3 -5 6 6 6 11 1 17 -2 13 -5z m2683 -14 c0 -11 -7 -20 -15 -20 -15 0 -21 21
-8 33 12 13 23 7 23 -13z m-2813 -6 c-3 -3 -12 -4 -19 -1 -8 3 -5 6 6 6 11 1
17 -2 13 -5z m2023 2 c0 -11 -19 -15 -25 -6 -3 5 1 10 9 10 9 0 16 -2 16 -4z
m-2180 -26 c-14 -4 -38 -8 -55 -8 -29 1 -29 1 5 8 50 11 83 11 50 0z m-1024
-30 c24 6 36 5 39 -3 11 -37 13 -39 14 -12 1 31 1 31 48 25 33 -3 49 -10 51
-21 2 -12 -12 -19 -55 -28 -32 -7 -71 -17 -87 -22 -56 -17 -62 -14 -57 39 3
26 6 40 8 31 3 -14 11 -15 39 -9z m3997 5 c-3 -9 -8 -14 -10 -11 -3 3 -2 9 2
15 9 16 15 13 8 -4z m-3723 -15 c0 -18 -6 -20 -55 -18 -72 4 -74 26 -2 31 28
2 53 4 55 5 1 1 2 -7 2 -18z m109 11 c18 -5 25 -14 25 -34 1 -20 -3 -26 -14
-23 -104 27 -109 29 -107 47 1 15 9 19 37 18 19 -1 46 -4 59 -8z m474 2 c-7
-2 -19 -2 -25 0 -7 3 -2 5 12 5 14 0 19 -2 13 -5z m2987 -2 c0 -5 -7 -14 -15
-21 -12 -10 -15 -10 -15 2 0 8 3 18 7 21 9 10 23 9 23 -2z m-70 -11 c0 -5 -2
-10 -4 -10 -3 0 -8 5 -11 10 -3 6 -1 10 4 10 6 0 11 -4 11 -10z m180 -4 c0 -3
-4 -8 -10 -11 -5 -3 -10 -1 -10 4 0 6 5 11 10 11 6 0 10 -2 10 -4z m-3490 -24
c21 -2 22 -1 10 8 -12 10 -10 11 10 6 14 -3 32 -6 40 -7 30 -1 -25 -18 -62
-18 -30 -1 -38 3 -38 17 0 9 4 13 8 7 4 -5 18 -11 32 -13z m123 1 c-7 -2 -19
-2 -25 0 -7 3 -2 5 12 5 14 0 19 -2 13 -5z m3246 -85 c-1 -24 -3 -27 -6 -10
-2 12 -9 22 -14 22 -6 0 -7 5 -4 10 13 21 25 9 24 -22z m251 13 c0 -5 -7 -12
-16 -15 -14 -5 -15 -4 -4 9 14 17 20 19 20 6z m-173 -33 c-3 -7 -5 -2 -5 12 0
14 2 19 5 13 2 -7 2 -19 0 -25z m-107 -2 c0 -3 -4 -8 -10 -11 -5 -3 -10 -1
-10 4 0 6 5 11 10 11 6 0 10 -2 10 -4z m230 -11 c0 -8 -2 -15 -4 -15 -2 0 -6
7 -10 15 -3 8 -1 15 4 15 6 0 10 -7 10 -15z m-2702 -24 c-3 -13 -22 -17 -103
-23 -55 -3 -210 -16 -345 -27 -135 -11 -264 -22 -288 -23 l-43 -3 2 -197 c1
-162 4 -198 15 -198 11 0 14 18 14 81 l0 81 34 -5 c19 -2 40 -1 47 4 11 7 11
9 1 9 -9 0 -11 7 -7 20 3 11 2 20 -3 20 -5 0 -7 11 -4 25 2 14 0 25 -6 25 -7
0 -9 -17 -7 -45 5 -44 4 -45 -25 -45 -24 0 -30 4 -30 23 0 18 -2 19 -10 7 -7
-10 -10 14 -10 77 0 50 4 95 10 98 5 3 41 8 80 11 l70 6 -1 -44 c-1 -24 -1
-45 0 -48 1 -3 3 -35 4 -71 2 -63 1 -65 -20 -61 -13 2 -23 0 -23 -6 0 -5 8 -9
18 -8 15 1 17 -9 17 -84 l0 -85 37 0 c21 0 38 5 38 10 0 6 5 3 10 -5 7 -12 13
-12 27 -4 22 13 30 64 11 64 -10 0 -9 3 2 10 8 5 11 12 8 15 -15 15 -29 -9
-26 -44 2 -20 -2 -36 -7 -36 -6 0 -11 35 -11 80 l-2 81 47 -1 c45 0 46 -1 49
-32 2 -25 -1 -33 -12 -33 -9 0 -16 -8 -16 -17 0 -15 2 -16 10 -3 8 12 10 12
16 -3 3 -9 4 -33 2 -52 -4 -34 -3 -35 29 -35 27 0 33 4 34 23 1 21 1 21 8 -3
6 -22 12 -25 53 -24 38 0 44 -2 31 -11 -12 -9 -13 -14 -4 -19 20 -13 25 1 29
75 3 51 1 69 -9 69 -7 0 -10 2 -7 5 3 3 13 3 22 -1 12 -5 16 -20 16 -70 0 -38
4 -64 11 -64 5 0 8 -3 6 -8 -3 -4 17 -8 44 -10 29 -1 49 2 49 8 0 5 5 10 11
10 6 0 8 -7 5 -16 -5 -14 2 -15 49 -12 34 2 54 -1 51 -7 -2 -5 -18 -9 -37 -8
-176 7 -288 16 -285 22 2 3 -33 7 -78 9 -44 1 -90 4 -101 6 -11 3 -41 5 -66 5
-56 1 -60 8 -69 106 l-7 70 -1 -62 c-2 -47 -6 -65 -19 -73 -16 -10 -15 -11 5
-7 16 4 22 1 22 -13 0 -15 -6 -18 -32 -15 -18 3 -81 7 -140 11 -60 3 -106 9
-103 13 2 5 5 101 5 214 1 114 2 207 3 207 54 6 323 32 377 35 41 3 154 14
250 25 272 30 283 30 278 1z m-1058 -71 c0 -21 -5 -30 -17 -31 -17 -1 -17 -2
0 -6 15 -4 17 -17 17 -99 l0 -94 -48 0 -47 0 2 78 c2 42 0 71 -3 63 -5 -11 -8
-11 -15 0 -5 9 -9 -16 -9 -63 l0 -78 -45 0 -45 0 0 69 c0 38 -3 76 -6 85 -4
11 0 16 12 16 17 1 17 2 2 10 -12 8 -14 17 -9 38 7 26 11 27 87 33 43 3 89 6
102 7 18 2 22 -3 22 -28z m50 0 c0 -23 -4 -30 -20 -30 -16 0 -20 7 -20 30 0
23 4 30 20 30 16 0 20 -7 20 -30z m1010 -5 c0 -33 -2 -35 -37 -37 l-38 -1 38
-4 37 -4 -1 -85 -2 -84 -44 0 c-46 0 -57 13 -20 25 19 6 19 8 5 12 -22 6 -31
39 -26 98 2 25 0 45 -4 45 -22 0 11 56 37 63 48 12 55 8 55 -28z m2570 20 c-7
-8 -16 -13 -20 -10 -5 3 -11 -2 -13 -10 -3 -11 -4 -10 -3 2 1 10 8 17 14 16 7
-2 12 2 12 7 0 6 5 10 11 10 8 0 8 -5 -1 -15z m-2798 -56 c2 -25 -1 -47 -8
-54 -9 -9 -10 -29 -5 -69 4 -31 5 -56 2 -57 -3 0 -39 -2 -78 -5 -80 -4 -77 -7
-73 64 1 31 -2 42 -12 40 -10 -2 -13 12 -13 60 0 66 15 88 26 37 7 -30 7 -30
8 -3 1 25 34 49 48 34 4 -3 -1 -6 -10 -6 -11 0 -17 -8 -17 -25 0 -16 6 -25 15
-25 8 0 15 8 15 17 0 9 3 13 8 9 4 -4 7 -13 7 -18 0 -6 6 -13 13 -15 15 -6 16
29 0 45 -9 9 -6 14 13 21 37 13 56 -3 61 -50z m69 31 c6 -23 7 -23 8 -3 1 27
17 38 25 18 3 -8 0 -15 -7 -16 -9 0 -9 -2 0 -5 8 -4 8 -12 -3 -32 -8 -15 -14
-32 -14 -39 0 -7 -6 -10 -14 -7 -18 7 -26 -27 -15 -73 4 -21 4 -42 0 -46 -13
-13 -31 84 -31 164 0 67 1 70 22 67 14 -2 25 -13 29 -28z m-1131 -10 c0 -25
-4 -30 -25 -30 -28 0 -28 0 -15 34 14 37 40 34 40 -4z m858 -92 l-3 -113 -45
0 -45 0 -2 88 c-1 53 -7 95 -14 104 -18 21 5 33 64 33 l48 0 -3 -112z m-131
62 c10 0 13 -6 9 -16 -4 -9 -2 -13 5 -8 12 7 9 -139 -3 -151 -4 -4 -15 -4 -26
-1 -14 5 -18 13 -15 26 3 11 9 20 14 20 15 0 10 30 -6 36 -8 4 -13 10 -10 14
3 4 6 30 7 56 1 27 3 43 6 36 2 -6 11 -12 19 -12z m3016 -11 c-9 -9 -12 -7
-10 9 1 14 5 18 11 12 7 -7 6 -14 -1 -21z m-3463 -74 c0 -57 -4 -95 -10 -95
-5 0 -10 16 -10 35 0 19 -4 35 -10 35 -6 0 -10 27 -10 60 0 53 2 60 20 60 19
0 20 -7 20 -95z m3157 48 c-3 -10 -5 -4 -5 12 0 17 2 24 5 18 2 -7 2 -21 0
-30z m-3437 -58 c0 -84 0 -85 -25 -85 -25 0 -25 1 -25 78 0 84 3 92 32 92 16
0 18 -9 18 -85z m1188 22 c4 -32 -15 -60 -34 -53 -7 3 -15 0 -18 -7 -2 -7 -5
3 -5 21 -2 67 50 102 57 39z m2909 -49 c-2 -18 -4 -6 -4 27 0 33 2 48 4 33 2
-15 2 -42 0 -60z m-3970 40 c-3 -8 -6 -5 -6 6 -1 11 2 17 5 13 3 -3 4 -12 1
-19z m760 -40 c-3 -7 -5 -2 -5 12 0 14 2 19 5 13 2 -7 2 -19 0 -25z m530 -40
c-3 -7 -5 -2 -5 12 0 14 2 19 5 13 2 -7 2 -19 0 -25z m-674 -108 c2 -68 0 -75
-18 -78 -18 -2 -20 3 -20 45 0 26 -4 61 -8 76 -5 19 -4 27 3 22 5 -3 10 -1 10
5 0 6 7 10 16 8 12 -2 16 -19 17 -78z m177 71 c0 -5 8 -12 18 -14 9 -3 1 -5
-18 -5 -19 0 -29 2 -22 5 6 2 10 9 6 14 -3 5 0 9 5 9 6 0 11 -4 11 -9z m140
-12 c0 -5 -13 -9 -30 -9 -25 0 -30 -4 -30 -25 0 -14 -8 -29 -20 -35 -18 -10
-20 -8 -20 28 0 35 3 40 33 49 34 10 67 6 67 -8z m224 -29 c-2 -58 -3 -62 -14
-55 -16 10 -12 -22 5 -39 20 -19 19 -26 -2 -26 -16 -1 -16 -2 1 -15 16 -12 18
-18 4 -14 -2 0 -15 -4 -30 -10 -23 -8 -28 -8 -28 4 0 9 6 12 15 9 8 -4 15 -1
15 5 0 13 -26 15 -34 3 -2 -4 -30 -9 -61 -10 -48 -2 -56 0 -51 13 3 8 0 15 -7
15 -8 0 -8 3 1 9 11 6 12 24 7 74 l-7 66 63 4 c35 2 78 4 94 5 29 2 30 0 29
-38z m1904 10 c26 -24 29 -24 49 -4 28 28 133 -1 133 -38 0 -9 5 -18 12 -20
19 -7 1 -36 -34 -58 -34 -21 -69 -22 -121 -1 -21 8 -34 8 -49 0 -28 -15 -99
-4 -115 17 -7 10 -13 13 -13 6 0 -6 -16 -18 -35 -28 -33 -15 -36 -15 -69 5
-26 16 -39 19 -53 12 -10 -5 -32 -14 -50 -20 -25 -7 -33 -6 -37 5 -4 12 -17
13 -56 8 -45 -6 -54 -4 -75 16 -30 29 -32 59 -5 88 25 26 61 28 96 6 18 -12
28 -14 36 -6 15 15 53 -4 67 -34 13 -30 27 -31 35 -1 3 13 20 30 41 40 33 16
38 16 58 2 24 -17 57 -20 57 -5 0 6 11 10 25 10 14 0 25 -5 25 -12 0 -7 8 -2
18 10 21 27 32 27 60 2z m909 -12 c-3 -7 -5 -2 -5 12 0 14 2 19 5 13 2 -7 2
-19 0 -25z m-3178 -45 c-2 -31 -3 -33 -6 -10 -2 15 -9 27 -14 27 -6 0 -7 5 -4
10 13 22 25 8 24 -27z m3207 -13 c15 0 24 -6 24 -16 0 -11 -8 -14 -27 -12 -23
2 -28 8 -30 33 -1 17 1 22 3 13 3 -11 15 -18 30 -18z m-3099 -37 c-3 -10 -5
-2 -5 17 0 19 2 27 5 18 2 -10 2 -26 0 -35z m-1011 -46 c3 -3 18 -4 33 -1 18
4 32 0 40 -10 12 -14 11 -16 -4 -10 -14 6 -16 3 -10 -14 5 -17 2 -22 -10 -22
-10 0 -15 5 -12 14 7 17 -43 42 -52 27 -8 -13 -38 -8 -54 9 -10 10 -9 12 6 7
9 -4 17 -2 17 3 0 10 35 8 46 -3z m-111 -26 c-6 -5 -25 10 -25 20 0 5 6 4 14
-3 8 -7 12 -15 11 -17z m235 -3 c0 -6 -7 -5 -15 2 -8 7 -15 17 -15 22 0 6 7 5
15 -2 8 -7 15 -17 15 -22z m64 20 c-3 -4 -15 -13 -27 -18 -20 -10 -20 -10 -5
3 10 8 16 16 13 19 -3 2 2 5 10 5 8 0 12 -4 9 -9z m72 0 c5 -8 2 -9 -9 -5 -10
3 -17 2 -17 -3 0 -6 -5 -10 -11 -10 -5 0 -8 4 -5 9 4 5 0 12 -6 14 -7 3 -1 6
14 6 15 1 30 -4 34 -11z m-683 -25 c-7 -2 -19 -2 -25 0 -7 3 -2 5 12 5 14 0
19 -2 13 -5z m167 -10 c0 -6 4 -15 10 -18 6 -3 7 1 4 9 -7 17 8 20 41 7 11 -4
35 -4 53 1 26 7 39 6 58 -7 19 -12 29 -14 39 -5 9 8 15 8 20 0 3 -5 15 -10 25
-10 10 0 22 -5 26 -12 5 -8 -2 -9 -25 -5 -18 4 -30 3 -26 -2 3 -5 0 -13 -6
-17 -8 -4 -9 -3 -5 4 5 8 -3 12 -24 12 -18 0 -29 4 -25 10 10 16 -3 12 -46
-16 -23 -14 -43 -23 -47 -20 -3 3 1 6 9 6 12 0 12 2 -1 10 -10 6 -20 4 -31 -6
-17 -15 -31 -10 -23 10 2 6 -4 12 -15 12 -10 0 -17 -6 -14 -12 3 -8 -6 -10
-26 -8 -17 2 -33 -1 -36 -6 -4 -6 -14 -5 -27 4 -11 8 -28 12 -37 9 -13 -4 -13
-3 -2 5 8 6 20 8 28 5 16 -6 17 2 2 28 -10 19 -8 20 25 15 20 -3 36 -2 36 2 0
4 9 8 20 8 11 0 20 -6 20 -13z m495 -13 c3 -5 1 -10 -4 -10 -6 0 -11 5 -11 10
0 6 2 10 4 10 3 0 8 -4 11 -10z m945 -4 c0 -3 -4 -8 -10 -11 -5 -3 -10 -1 -10
4 0 6 5 11 10 11 6 0 10 -2 10 -4z m-1962 -29 c3 -16 1 -17 -17 -5 -25 16 -27
31 -4 26 10 -2 19 -11 21 -21z m1421 -39 c1 -5 -3 -8 -9 -8 -5 0 -10 4 -10 9
0 14 -43 1 -57 -17 -21 -26 -15 -35 20 -29 l32 6 -30 -14 c-41 -19 -55 -18
-56 3 0 9 -3 12 -5 5 -6 -14 -34 -6 -34 10 0 6 3 7 6 4 9 -8 44 32 44 50 0 7
5 13 11 13 5 0 7 5 3 12 -4 7 -3 8 4 4 7 -4 12 -2 12 4 0 13 68 -39 69 -52z
m227 51 c3 -6 -8 -24 -25 -39 -34 -32 -39 -25 -16 20 16 31 29 37 41 19z
m-196 -3 c0 -2 -8 -10 -17 -17 -16 -13 -17 -12 -4 4 13 16 21 21 21 13z
m-1613 -21 c8 -9 13 -19 10 -22 -6 -5 -37 21 -37 31 0 10 11 6 27 -9z m1739
-19 c-10 -16 -12 -27 -6 -31 6 -4 8 -11 4 -16 -3 -6 -12 2 -20 16 -13 25 -12
28 9 45 28 23 34 17 13 -14z m-1366 -1 c-14 -17 -36 -20 -45 -6 -3 6 4 8 15 6
12 -2 23 2 27 11 3 8 8 13 11 10 3 -3 -1 -12 -8 -21z m1010 15 c0 -5 -5 -10
-11 -10 -5 0 -7 5 -4 10 3 6 8 10 11 10 2 0 4 -4 4 -10z m-1233 -25 c0 -17
-23 -20 -32 -5 -3 6 -1 10 5 10 6 0 8 4 5 10 -3 5 0 7 8 4 7 -2 14 -11 14 -19z
m443 4 c0 -6 -4 -7 -10 -4 -5 3 -10 1 -10 -4 0 -6 -5 -11 -10 -11 -6 0 -5 8 2
19 12 19 28 19 28 0z m1088 13 c19 -13 23 -50 6 -56 -8 -3 -12 -2 -9 3 3 5 -3
12 -12 14 -13 3 -11 5 6 6 19 1 21 4 11 15 -6 8 -19 12 -27 9 -11 -4 -14 -2
-9 5 8 14 16 15 34 4z m-951 -48 c-9 -9 -37 15 -37 33 0 10 6 8 22 -7 12 -11
19 -23 15 -26z m-672 26 c3 -5 1 -10 -4 -10 -6 0 -11 5 -11 10 0 6 2 10 4 10
3 0 8 -4 11 -10z m215 0 c0 -5 -2 -10 -4 -10 -3 0 -8 5 -11 10 -3 6 -1 10 4
10 6 0 11 -4 11 -10z m30 -10 c0 -5 -4 -10 -10 -10 -5 0 -10 5 -10 10 0 6 5
10 10 10 6 0 10 -4 10 -10z m1070 0 c0 -5 -5 -10 -11 -10 -5 0 -7 5 -4 10 3 6
8 10 11 10 2 0 4 -4 4 -10z m464 -16 c7 -19 2 -18 -19 6 -16 17 -16 20 -3 15
9 -4 19 -13 22 -21z m-647 10 c-3 -3 -12 -4 -19 -1 -8 3 -5 6 6 6 11 1 17 -2
13 -5z m1580 -2 c6 -4 -6 -8 -27 -8 -22 -1 -37 2 -34 7 6 11 45 11 61 1z
m-1141 -24 c-3 -13 -5 -30 -6 -38 -1 -8 -6 -4 -11 10 -7 17 -7 26 1 28 5 2 8
8 4 13 -3 5 0 9 5 9 6 0 9 -10 7 -22z m-285 -11 c-10 -9 -11 -8 -5 6 3 10 9
15 12 12 3 -3 0 -11 -7 -18z m1073 -3 c7 -19 2 -18 -19 6 -16 17 -16 20 -3 15
9 -4 19 -13 22 -21z m-374 6 c0 -5 -2 -10 -4 -10 -3 0 -8 5 -11 10 -3 6 -1 10
4 10 6 0 11 -4 11 -10z m-607 -7 c-7 -2 -21 -2 -30 0 -10 3 -4 5 12 5 17 0 24
-2 18 -5z m163 -28 c1 -8 -2 -13 -7 -9 -5 3 -9 12 -9 21 0 19 13 9 16 -12z
m227 18 c-7 -2 -19 -2 -25 0 -7 3 -2 5 12 5 14 0 19 -2 13 -5z m-913 -13 c12
-8 11 -10 -7 -10 -13 0 -23 5 -23 10 0 13 11 13 30 0z m740 -10 c-6 -11 -13
-20 -16 -20 -2 0 0 9 6 20 6 11 13 20 16 20 2 0 0 -9 -6 -20z m270 5 c10 -12
10 -15 -3 -15 -8 0 -23 3 -32 6 -13 5 -14 8 -3 15 18 12 24 11 38 -6z m655 -8
c4 5 5 2 1 -4 -7 -12 6 -18 28 -14 5 1 4 -5 -4 -13 -15 -19 -30 -21 -30 -4 0
6 -10 23 -22 37 -20 22 -20 23 -2 8 11 -9 24 -14 29 -10z m64 -10 c0 -21 -1
-21 -9 -2 -12 28 -12 37 0 30 6 -3 10 -16 9 -28z m-2076 -7 c3 -12 1 -18 -5
-14 -6 4 -15 0 -20 -7 -8 -11 -8 -10 -4 4 3 10 6 25 6 33 0 21 16 9 23 -16z
m805 -16 c5 3 9 -1 9 -9 0 -8 -5 -15 -11 -15 -13 0 -36 46 -28 55 4 3 10 -4
14 -15 4 -12 12 -19 16 -16z m204 1 c-3 -16 0 -25 9 -25 7 0 9 -3 6 -6 -4 -4
-14 -1 -23 7 -10 8 -19 13 -21 12 -1 -2 -12 -3 -23 -3 -20 0 -23 19 -5 32 17
13 35 9 29 -7 -4 -8 -1 -15 5 -15 10 0 15 14 12 33 -1 5 3 6 7 3 5 -3 7 -17 4
-31z m953 25 c13 -6 15 -9 5 -9 -8 0 -22 4 -30 9 -18 12 -2 12 25 0z m-1580
-10 c3 -5 -1 -10 -10 -10 -9 0 -13 5 -10 10 3 6 8 10 10 10 2 0 7 -4 10 -10z
m1135 0 c0 -5 -2 -10 -4 -10 -3 0 -8 5 -11 10 -3 6 -1 10 4 10 6 0 11 -4 11
-10z m-280 -25 c-7 -9 -15 -13 -18 -10 -3 2 1 11 8 20 7 9 15 13 18 10 3 -2
-1 -11 -8 -20z m319 11 c10 -12 8 -13 -8 -9 -12 3 -18 9 -15 14 7 12 10 11 23
-5z m-409 0 c0 -2 -9 -6 -20 -9 -11 -3 -18 -1 -14 4 5 9 34 13 34 5z m-1268
-21 c16 3 31 -1 39 -11 12 -15 11 -16 -8 -10 -24 8 -54 -5 -85 -36 -13 -13
-29 -18 -44 -15 -13 2 -24 0 -24 -4 0 -5 -6 -6 -12 -4 -7 3 -42 7 -78 9 -36 2
-81 10 -100 19 l-35 15 33 2 c17 2 35 3 40 5 4 1 25 5 47 9 22 4 53 10 70 13
26 5 28 4 16 -11 -7 -9 -19 -16 -27 -16 -7 0 -15 -4 -18 -8 -3 -4 12 -8 33 -8
20 0 42 -4 49 -8 16 -10 12 14 -6 33 -7 7 -10 17 -5 22 11 10 77 16 83 7 3 -4
17 -5 32 -3z m2479 -18 c12 -22 12 -22 -10 -3 -11 11 -21 23 -21 28 0 14 19
-1 31 -25z m184 23 c3 -5 1 -10 -4 -10 -6 0 -11 5 -11 10 0 6 2 10 4 10 3 0 8
-4 11 -10z m-2458 -26 c-9 -9 -28 6 -21 18 4 6 10 6 17 -1 6 -6 8 -13 4 -17z
m1107 -19 l-17 -27 -13 24 c-13 24 -9 42 5 19 7 -10 11 -10 22 2 21 23 23 12
3 -18z m61 7 c-3 -3 -11 0 -18 7 -9 10 -8 11 6 5 10 -3 15 -9 12 -12z m40 8
c3 -5 1 -10 -4 -10 -6 0 -11 5 -11 10 0 6 2 10 4 10 3 0 8 -4 11 -10z m-1321
-9 c11 -4 15 -10 10 -13 -5 -4 -18 0 -29 8 -20 15 -12 17 19 5z m1136 -7 c0
-2 -7 -4 -15 -4 -8 0 -15 4 -15 10 0 5 7 7 15 4 8 -4 15 -8 15 -10z m257 -6
c-3 -8 -6 -5 -6 6 -1 11 2 17 5 13 3 -3 4 -12 1 -19z m160 15 c-4 -3 1 -12 11
-20 15 -13 15 -13 -6 -3 -19 9 -23 30 -5 30 4 0 3 -3 0 -7z m-1604 -28 c-12
-9 -20 -10 -24 -3 -4 6 -12 7 -18 4 -6 -4 -11 -3 -11 2 0 15 9 19 40 14 28 -4
29 -6 13 -17z m1107 15 c8 -5 11 -12 7 -16 -4 -4 -15 0 -24 9 -18 18 -8 23 17
7z m1880 -16 c0 -8 5 -12 10 -9 6 3 10 4 10 1 0 -3 -8 -10 -17 -15 -15 -8 -18
-5 -18 19 0 15 3 26 8 23 4 -2 7 -11 7 -19z m-2433 -6 c-3 -8 -6 -5 -6 6 -1
11 2 17 5 13 3 -3 4 -12 1 -19z m413 9 c0 -4 5 -5 10 -2 6 3 10 1 10 -5 0 -7
-8 -9 -22 -5 -32 10 -41 21 -18 21 11 0 20 -4 20 -9z m387 -3 c0 -7 -6 -10
-14 -7 -7 3 -13 8 -13 12 0 4 6 8 13 8 8 0 14 -6 14 -13z m606 -9 c-3 -9 -8
-14 -10 -11 -3 3 -2 9 2 15 9 16 15 13 8 -4z m997 -6 c0 -6 -4 -7 -10 -4 -5 3
-10 11 -10 16 0 6 5 7 10 4 6 -3 10 -11 10 -16z m-1329 1 c5 0 9 -4 9 -9 0
-12 -38 -2 -47 12 -4 7 0 8 11 4 10 -4 22 -7 27 -7z m676 -12 c-3 -8 -6 -5 -6
6 -1 11 2 17 5 13 3 -3 4 -12 1 -19z m44 5 c13 -16 12 -17 -3 -4 -17 13 -22
21 -14 21 2 0 10 -8 17 -17z m-2441 -13 c-8 -5 -22 -10 -30 -10 -13 0 -13 1 0
10 8 5 22 10 30 10 13 0 13 -1 0 -10z m1644 -5 c-4 -8 -11 -15 -16 -15 -6 0
-5 6 2 15 7 8 14 15 16 15 2 0 1 -7 -2 -15z m392 -12 c-7 -7 -26 7 -26 19 0 6
6 6 15 -2 9 -7 13 -15 11 -17z m554 9 c0 -4 -17 -8 -38 -9 -26 -2 -33 0 -22 6
8 5 17 8 21 5 4 -2 10 0 14 6 6 11 25 5 25 -8z m-1820 -1 c0 -5 -13 -9 -30 -9
-16 1 -30 5 -30 10 0 4 14 8 30 8 17 0 30 -4 30 -9z m455 -1 c3 -6 -1 -7 -9
-4 -18 7 -21 14 -7 14 6 0 13 -4 16 -10z m162 -5 c0 -8 -4 -12 -9 -9 -5 3 -6
10 -3 15 9 13 12 11 12 -6z m1709 -12 c-10 -10 -19 5 -10 18 6 11 8 11 12 0 2
-7 1 -15 -2 -18z m-1561 7 c3 -5 1 -10 -4 -10 -6 0 -11 5 -11 10 0 6 2 10 4
10 3 0 8 -4 11 -10z m965 -11 c0 -6 -4 -7 -10 -4 -5 3 -10 11 -10 16 0 6 5 7
10 4 6 -3 10 -11 10 -16z m-1570 7 c0 -9 -30 -14 -35 -6 -4 6 3 10 14 10 12 0
21 -2 21 -4z m158 -21 c-3 -3 -9 2 -12 12 -6 14 -5 15 5 6 7 -7 10 -15 7 -18z
m883 8 c13 -16 12 -17 -3 -4 -10 7 -18 15 -18 17 0 8 8 3 21 -13z m34 7 c3 -6
-1 -7 -9 -4 -18 7 -21 14 -7 14 6 0 13 -4 16 -10z m-844 -51 c-9 -9 -20 -14
-25 -11 -5 3 0 10 11 16 11 6 18 19 16 31 l-3 20 9 -20 c6 -14 4 -25 -8 -36z
m-1351 27 c0 -2 -7 -6 -15 -10 -8 -3 -15 -1 -15 4 0 6 7 10 15 10 8 0 15 -2
15 -4z m1497 -18 c-3 -8 -6 -5 -6 6 -1 11 2 17 5 13 3 -3 4 -12 1 -19z m1294
5 c13 -17 13 -17 -6 -3 -11 8 -22 16 -24 17 -2 2 0 3 6 3 6 0 17 -8 24 -17z
m-896 -3 c3 -5 1 -10 -4 -10 -6 0 -11 5 -11 10 0 6 2 10 4 10 3 0 8 -4 11 -10z
m632 -12 c-3 -8 -6 -5 -6 6 -1 11 2 17 5 13 3 -3 4 -12 1 -19z m-1240 6 c-3
-3 -12 -4 -19 -1 -8 3 -5 6 6 6 11 1 17 -2 13 -5z m1663 2 c0 -3 -4 -8 -10
-11 -5 -3 -10 -1 -10 4 0 6 5 11 10 11 6 0 10 -2 10 -4z m-176 -12 c25 -10 19
-22 -9 -16 -14 2 -22 8 -19 13 6 11 8 11 28 3z m109 -35 c-7 -7 -12 -3 -15 16
-5 25 -4 25 10 11 12 -11 13 -19 5 -27z m1934 19 c-3 -8 -6 -5 -6 6 -1 11 2
17 5 13 3 -3 4 -12 1 -19z m-3349 -23 c-3 -3 -9 2 -12 12 -6 14 -5 15 5 6 7
-7 10 -15 7 -18z m-188 5 c0 -5 -4 -10 -10 -10 -5 0 -10 5 -10 10 0 6 5 10 10
10 6 0 10 -4 10 -10z m1990 -20 c0 -5 -2 -10 -4 -10 -3 0 -8 5 -11 10 -3 6 -1
10 4 10 6 0 11 -4 11 -10z m1705 -20 c-4 -12 -9 -19 -12 -17 -3 3 -2 15 2 27
4 12 9 19 12 17 3 -3 2 -15 -2 -27z m-3711 12 c3 -5 -1 -9 -9 -9 -8 0 -12 4
-9 9 3 4 7 8 9 8 2 0 6 -4 9 -8z m864 -27 c-3 -3 -9 2 -12 12 -6 14 -5 15 5 6
7 -7 10 -15 7 -18z m997 15 c3 -5 2 -10 -4 -10 -5 0 -13 5 -16 10 -3 6 -2 10
4 10 5 0 13 -4 16 -10z m-1812 -52 c5 -19 5 -19 -14 -2 -22 20 -25 36 -5 28 8
-3 16 -14 19 -26z m41 24 c-6 -4 -14 -14 -17 -22 -4 -10 -6 -8 -6 8 -1 15 5
22 17 22 10 0 13 -3 6 -8z m1506 -37 c0 -5 -5 -3 -10 5 -5 8 -10 20 -10 25 0
6 5 3 10 -5 5 -8 10 -19 10 -25z m-1093 19 c-3 -3 -12 -4 -19 -1 -8 3 -5 6 6
6 11 1 17 -2 13 -5z m1002 4 c-2 -2 -17 -14 -34 -28 l-30 -25 24 28 c14 15 29
27 34 27 6 0 8 -1 6 -2z m255 -7 c11 -4 15 -10 9 -14 -5 -3 -19 0 -29 8 -20
15 -11 18 20 6z m-974 -11 c0 -5 -5 -10 -11 -10 -5 0 -7 5 -4 10 3 6 8 10 11
10 2 0 4 -4 4 -10z m210 0 c0 -5 -2 -10 -4 -10 -3 0 -8 5 -11 10 -3 6 -1 10 4
10 6 0 11 -4 11 -10z m644 -5 c3 -8 1 -15 -4 -15 -6 0 -10 7 -10 15 0 8 2 15
4 15 2 0 6 -7 10 -15z m-440 -40 c3 -8 1 -17 -4 -20 -6 -4 -10 1 -10 9 0 9 -5
16 -11 16 -11 0 -39 24 -39 34 0 10 58 -25 64 -39z m186 35 c0 -5 -5 -10 -11
-10 -5 0 -7 5 -4 10 3 6 8 10 11 10 2 0 4 -4 4 -10z m-2130 -15 c0 -9 -49 -25
-150 -50 -335 -83 -353 -88 -647 -166 -65 -17 -125 -32 -133 -33 -9 -1 -20 -5
-25 -8 -6 -3 -25 -9 -43 -13 -37 -8 -45 10 -9 24 18 8 198 54 352 91 22 6 168
43 325 84 269 70 330 83 330 71z m1670 -9 c0 -2 -7 -7 -16 -10 -8 -3 -12 -2
-9 4 6 10 25 14 25 6z m-590 -26 c0 -5 -5 -10 -11 -10 -5 0 -7 5 -4 10 3 6 8
10 11 10 2 0 4 -4 4 -10z m1226 -18 c-4 -3 -14 2 -24 12 -16 18 -16 18 6 6 13
-6 21 -14 18 -18z m384 13 c0 -8 -2 -15 -4 -15 -2 0 -6 7 -10 15 -3 8 -1 15 4
15 6 0 10 -7 10 -15z m-296 -11 c4 -10 1 -14 -6 -12 -15 5 -23 28 -10 28 5 0
13 -7 16 -16z m-779 -22 c-3 -3 -11 0 -18 7 -9 10 -8 11 6 5 10 -3 15 -9 12
-12z m430 8 c-3 -5 -11 -10 -16 -10 -6 0 -7 5 -4 10 3 6 11 10 16 10 6 0 7 -4
4 -10z m-508 -6 c-3 -3 -12 -4 -19 -1 -8 3 -5 6 6 6 11 1 17 -2 13 -5z m1154
-51 c13 -16 12 -17 -3 -4 -10 7 -18 15 -18 17 0 8 8 3 21 -13z m-561 -13 c0
-5 -2 -10 -4 -10 -3 0 -8 5 -11 10 -3 6 -1 10 4 10 6 0 11 -4 11 -10z m-378
-22 c-6 -6 -15 -8 -19 -4 -4 4 -1 11 7 16 19 12 27 3 12 -12z m625 5 c2 -6 -6
-13 -17 -16 -16 -4 -19 -2 -11 7 6 7 7 16 3 21 -4 4 -1 6 7 3 8 -2 16 -9 18
-15z m109 -2 c-4 -5 0 -11 6 -14 7 -3 3 -4 -9 -4 -25 1 -30 12 -10 20 18 8 19
8 13 -2z m-412 -43 c-5 -7 0 -9 14 -6 12 4 22 2 22 -3 0 -5 -4 -9 -9 -9 -5 0
-16 -3 -24 -6 -10 -3 -18 2 -22 15 -4 15 -15 21 -36 21 -16 0 -29 5 -29 10 0
15 33 12 59 -6 23 -16 23 -16 17 7 -6 20 -5 21 4 6 6 -9 8 -22 4 -29z m-114
28 c0 -3 -4 -8 -10 -11 -5 -3 -10 -1 -10 4 0 6 5 11 10 11 6 0 10 -2 10 -4z
m580 -16 c0 -5 -2 -10 -4 -10 -3 0 -8 5 -11 10 -3 6 -1 10 4 10 6 0 11 -4 11
-10z m40 -32 c0 -6 -7 -5 -15 2 -8 7 -15 17 -15 22 0 6 7 5 15 -2 8 -7 15 -17
15 -22z m-416 -58 l7 -25 -15 25 c-17 28 -21 50 -7 35 5 -6 12 -21 15 -35z
m736 10 c0 -15 -5 -12 -26 11 -19 22 -19 22 4 10 12 -6 22 -16 22 -21z m-3940
0 c0 -11 -42 -30 -66 -30 -21 0 -17 16 9 28 29 14 57 15 57 2z m3170 -63 c0
-6 -9 -2 -20 8 -11 10 -20 23 -20 28 0 6 9 2 20 -8 11 -10 20 -23 20 -28z
m2075 23 c3 -5 1 -10 -4 -10 -6 0 -11 5 -11 10 0 6 2 10 4 10 3 0 8 -4 11 -10z
m-145 -70 c12 -16 19 -30 16 -30 -2 0 -14 14 -26 30 -12 17 -19 30 -16 30 2 0
14 -13 26 -30z m-129 3 c13 -16 12 -17 -3 -4 -17 13 -22 21 -14 21 2 0 10 -8
17 -17z m323 -9 c3 -8 2 -12 -4 -9 -6 3 -10 10 -10 16 0 14 7 11 14 -7z m76
-29 c0 -5 -5 -3 -10 5 -5 8 -10 20 -10 25 0 6 5 3 10 -5 5 -8 10 -19 10 -25z
m-310 -37 c0 -14 -19 1 -31 25 -12 22 -12 22 10 3 11 -11 21 -23 21 -28z m81
15 c13 -16 12 -17 -3 -4 -17 13 -22 21 -14 21 2 0 10 -8 17 -17z m180 -78 c6
-11 -1 -6 -15 10 -14 17 -26 35 -26 40 1 11 27 -20 41 -50z m34 -55 c9 -17 13
-30 11 -30 -3 0 -12 13 -21 30 -9 17 -13 30 -11 30 3 0 12 -13 21 -30z"/>
<path d="M5327 2263 c3 -7 -1 -13 -8 -13 -12 0 -12 -2 0 -9 8 -5 12 -15 9 -22
-3 -8 -2 -23 3 -34 6 -16 8 -13 9 15 2 19 2 41 1 48 -1 6 3 12 9 12 5 0 10 4
10 8 0 4 -8 8 -19 8 -11 0 -17 -5 -14 -13z"/>
<path d="M5450 1920 c-9 -6 -10 -10 -3 -10 6 0 15 5 18 10 8 12 4 12 -15 0z"/>
<path d="M5070 2330 c-13 -8 -12 -10 3 -10 9 0 17 5 17 10 0 12 -1 12 -20 0z"/>
<path d="M5041 2294 c0 -11 3 -14 6 -6 3 7 2 16 -1 19 -3 4 -6 -2 -5 -13z"/>
<path d="M4990 2140 c0 -11 4 -20 9 -20 5 0 7 9 4 20 -3 11 -7 20 -9 20 -2 0
-4 -9 -4 -20z"/>
<path d="M4720 2200 c0 -5 5 -10 10 -10 6 0 10 5 10 10 0 6 -4 10 -10 10 -5 0
-10 -4 -10 -10z"/>
<path d="M4840 2194 c0 -8 5 -12 10 -9 6 3 10 10 10 16 0 5 -4 9 -10 9 -5 0
-10 -7 -10 -16z"/>
<path d="M4971 1944 c0 -11 3 -14 6 -6 3 7 2 16 -1 19 -3 4 -6 -2 -5 -13z"/>
<path d="M4255 1710 c-28 -7 -27 -8 13 -9 23 0 42 4 42 9 0 11 -11 11 -55 0z"/>
<path d="M4432 1580 l-3 -100 26 0 26 0 -7 80 c-6 69 -4 80 9 80 11 0 23 -23
39 -77 17 -56 28 -77 42 -79 33 -5 63 14 70 43 4 15 9 36 13 47 3 12 1 16 -6
12 -6 -4 -11 0 -12 11 0 10 -8 -4 -18 -32 -10 -27 -22 -50 -27 -50 -5 0 -15
19 -22 43 -8 23 -20 42 -28 42 -8 0 -14 5 -14 11 0 5 5 7 11 3 8 -4 9 1 4 17
-4 13 -12 26 -16 27 -5 2 -7 8 -3 13 3 5 -14 9 -38 9 l-43 0 -3 -100z"/>
<path d="M4158 1663 l-38 -4 0 -90 0 -89 95 0 c71 0 93 3 90 13 -4 8 -26 11
-75 9 l-70 -4 0 31 0 31 70 0 c56 0 70 3 70 15 0 13 -11 14 -70 9 l-70 -7 0
32 0 31 63 1 c34 1 65 1 70 0 4 0 7 6 7 14 0 15 -47 18 -142 8z"/>
<path d="M3810 1635 c0 -6 28 -9 71 -7 62 3 71 2 66 -12 -3 -8 -2 -18 4 -22
13 -8 49 24 49 43 0 12 -18 14 -95 11 -54 -2 -95 -7 -95 -13z"/>
<path d="M3563 1555 c-21 -61 -26 -85 -17 -85 7 0 16 5 19 10 7 11 98 14 109
3 3 -4 13 -8 20 -9 11 -1 10 11 -6 58 -15 44 -23 56 -30 47 -7 -10 -8 -5 -3
14 4 19 2 26 -4 22 -7 -3 -8 0 -5 9 5 12 -1 16 -24 16 -28 0 -31 -4 -59 -85z
m81 18 c22 -63 22 -63 -23 -63 -39 0 -40 1 -38 34 1 19 5 32 9 30 4 -3 10 7
14 21 9 37 20 31 38 -22z"/>
<path d="M3391 1608 c-5 -13 -12 -42 -16 -65 -6 -38 -25 -71 -25 -44 0 6 -4
11 -10 11 -5 0 -10 -9 -10 -20 0 -15 7 -20 25 -20 18 0 25 6 26 20 1 11 3 23
4 28 1 4 6 22 10 40 4 19 14 36 21 39 8 3 14 12 14 21 0 13 -3 12 -16 -4 -13
-16 -15 -16 -10 -1 8 25 -3 21 -13 -5z"/>
<path d="M3439 1603 c0 -16 -2 -37 -4 -48 -2 -11 -7 -35 -10 -52 -5 -26 -2
-33 10 -33 12 0 15 15 15 80 0 44 -2 80 -5 80 -3 0 -5 -12 -6 -27z"/>
<path d="M4060 1562 c0 -29 4 -52 9 -52 8 0 3 90 -5 99 -2 2 -4 -19 -4 -47z"/>
<path d="M3005 1592 c6 -4 12 -18 13 -32 6 -39 12 -37 12 3 0 29 -4 37 -17 37
-10 0 -14 -4 -8 -8z"/>
<path d="M3270 1579 c0 -11 4 -18 10 -14 5 3 7 12 3 20 -7 21 -13 19 -13 -6z"/>
<path d="M3870 1553 c-84 -70 -80 -77 40 -81 85 -2 100 0 100 13 0 13 -12 16
-70 14 -39 -1 -73 0 -76 3 -3 3 15 23 40 43 25 20 43 41 40 46 -8 14 -16 11
-74 -38z"/>
<path d="M4729 1553 l-1 -48 -12 35 -13 35 -4 -42 c-4 -39 -3 -43 18 -43 21 0
23 4 23 55 0 30 -2 55 -5 55 -3 0 -5 -21 -6 -47z"/>
<path d="M3310 1575 c0 -8 4 -15 10 -15 5 0 7 7 4 15 -4 8 -8 15 -10 15 -2 0
-4 -7 -4 -15z"/>
<path d="M4023 1576 c-7 -8 -18 -16 -25 -19 -17 -6 -1 -22 30 -32 20 -6 22 -3
22 29 0 38 -7 44 -27 22z"/>
<path d="M3270 1512 c0 -23 4 -42 8 -42 10 0 9 66 -1 76 -4 4 -7 -11 -7 -34z"/>
<path d="M3321 1534 c0 -11 3 -14 6 -6 3 7 2 16 -1 19 -3 4 -6 -2 -5 -13z"/>
<path d="M1648 1903 c7 -3 16 -2 19 1 4 3 -2 6 -13 5 -11 0 -14 -3 -6 -6z"/>
<path d="M1670 1889 c-12 -8 -10 -9 8 -4 13 4 29 2 36 -4 9 -8 13 -7 13 2 0
16 -37 20 -57 6z"/>
<path d="M2002 1568 c-7 -7 -12 -19 -11 -27 0 -11 3 -10 8 4 7 16 9 13 12 -17
3 -20 1 -34 -3 -32 -4 3 -8 -2 -8 -10 0 -19 19 -21 26 -3 2 7 6 29 7 49 3 28
0 35 -12 30 -9 -3 -12 -1 -7 6 9 15 3 15 -12 0z"/>
<path d="M1802 1540 c0 -19 2 -27 5 -17 2 9 2 25 0 35 -3 9 -5 1 -5 -18z"/>
<path d="M1991 1294 c0 -11 3 -14 6 -6 3 7 2 16 -1 19 -3 4 -6 -2 -5 -13z"/>
<path d="M2198 1270 c-3 -16 -1 -30 4 -30 4 0 8 14 8 30 0 17 -2 30 -4 30 -2
0 -6 -13 -8 -30z"/>
<path d="M1453 1614 c3 -3 22 -6 42 -6 20 0 39 3 42 6 4 3 -15 6 -42 6 -27 0
-46 -3 -42 -6z"/>
<path d="M2385 1646 c11 -8 16 -20 12 -30 -5 -11 -1 -16 13 -16 11 0 20 7 20
16 0 8 -4 12 -10 9 -5 -3 -10 2 -10 12 0 12 -8 19 -21 20 -20 2 -20 1 -4 -11z"/>
<path d="M2480 1615 c0 -14 4 -25 9 -25 5 0 9 11 9 25 0 14 -4 25 -9 25 -5 0
-9 -11 -9 -25z"/>
<path d="M2530 1500 c0 -5 5 -10 10 -10 6 0 10 5 10 10 0 6 -4 10 -10 10 -5 0
-10 -4 -10 -10z"/>
<path d="M2598 1383 c10 -4 10 -8 1 -19 -9 -11 -9 -21 0 -40 6 -14 11 -34 11
-44 0 -33 15 -23 17 11 1 17 6 37 10 43 4 7 0 3 -9 -7 -15 -16 -18 -16 -18 -4
0 9 4 18 9 21 5 3 11 14 13 23 4 14 -2 18 -21 19 -14 1 -20 -1 -13 -3z"/>
<path d="M2547 1353 c-10 -10 -8 -45 2 -39 11 7 21 46 12 46 -4 0 -11 -3 -14
-7z"/>
<path d="M4082 1348 c-14 -14 -16 -44 -3 -52 4 -3 6 6 3 19 -3 19 1 27 19 34
14 6 18 10 9 10 -9 1 -21 -4 -28 -11z"/>
<path d="M4200 1355 c-3 -5 -5 -23 -5 -40 0 -26 4 -30 30 -32 19 -1 22 1 8 4
-17 3 -23 13 -25 41 -2 20 -5 33 -8 27z"/>
<path d="M4326 1347 c-38 -28 -1 -75 48 -63 22 5 27 12 24 33 -2 15 -10 28
-18 30 -12 4 -12 3 -2 -5 23 -16 10 -47 -21 -50 -38 -5 -48 25 -18 50 26 20
14 25 -13 5z"/>
<path d="M4470 1315 c0 -19 4 -35 8 -35 4 0 6 16 4 35 -2 19 -6 35 -8 35 -2 0
-4 -16 -4 -35z"/>
<path d="M4535 1330 c2 -12 -5 -30 -15 -40 -20 -20 -16 -26 7 -12 17 11 29 72
15 72 -6 0 -9 -9 -7 -20z"/>
<path d="M4627 1343 c-4 -3 -7 -21 -7 -40 0 -31 2 -33 33 -33 22 0 41 8 53 21
19 21 18 21 -5 40 -23 19 -61 25 -74 12z m61 -12 c23 -14 10 -46 -21 -49 -24
-3 -27 0 -27 27 0 32 19 41 48 22z"/>
<path d="M1967 1125 c-3 -7 0 -12 8 -11 22 3 27 13 11 19 -8 3 -17 0 -19 -8z"/>
<path d="M1248 2843 c7 -3 16 -2 19 1 4 3 -2 6 -13 5 -11 0 -14 -3 -6 -6z"/>
<path d="M1640 2780 c0 -5 5 -10 11 -10 5 0 7 5 4 10 -3 6 -8 10 -11 10 -2 0
-4 -4 -4 -10z"/>
<path d="M110 2522 c0 -5 7 -9 15 -9 8 0 12 4 9 9 -3 4 -9 8 -15 8 -5 0 -9 -4
-9 -8z"/>
<path d="M0 2383 c0 -26 5 -31 38 -41 20 -7 69 -27 107 -46 39 -19 72 -31 73
-25 2 5 10 9 18 9 20 0 -31 67 -56 75 -13 4 -17 12 -13 23 5 14 3 15 -7 5 -9
-9 -19 -9 -32 -2 -20 11 -37 15 -95 26 -31 5 -33 4 -33 -24z"/>
<path d="M0 1830 l0 -122 60 4 c59 4 60 4 60 -21 1 -26 1 -26 15 4 7 17 14 25
14 19 1 -8 12 -9 36 -4 35 8 52 -1 40 -20 -3 -5 3 -10 14 -10 12 0 21 5 21 11
0 6 7 8 16 5 12 -4 15 -2 11 9 -4 8 -2 17 3 20 5 3 12 -7 16 -22 9 -42 12 -50
13 -30 1 10 9 17 24 18 21 1 21 1 -3 9 -18 5 -9 7 31 6 50 -1 59 -5 87 -36 18
-19 32 -29 32 -22 0 17 25 15 40 -3 13 -16 70 -10 82 9 5 6 8 1 8 -11 0 -24
16 -31 23 -10 3 9 7 9 20 -1 14 -12 16 -11 14 7 -1 13 -8 21 -19 21 -10 0 -18
7 -18 15 0 10 10 15 28 15 15 0 43 3 63 6 l36 6 -3 -78 c-2 -56 -7 -81 -18
-89 -11 -9 -15 -36 -17 -117 -1 -58 2 -111 5 -117 10 -15 46 -14 46 2 0 9 3 8
9 -2 5 -7 14 -10 20 -7 10 6 144 16 218 16 17 0 21 4 16 18 -6 14 -4 15 9 5 8
-7 18 -10 21 -6 4 3 7 2 7 -4 0 -6 13 -10 30 -9 16 1 30 5 30 9 0 5 6 5 13 0
6 -4 27 -8 45 -8 l32 -1 0 108 c0 89 3 108 15 108 12 0 15 18 15 101 l0 101
-37 -5 c-21 -3 -62 2 -92 10 -65 18 -139 12 -186 -16 -26 -15 -46 -18 -92 -14
-88 7 -85 4 -81 82 l3 69 -45 6 c-25 3 -169 21 -320 41 -151 19 -305 38 -342
42 l-68 6 0 -123z m875 -308 c0 -7 6 -16 13 -21 19 -12 15 -24 -15 -39 -23
-13 -28 -12 -49 12 -22 23 -23 26 -6 35 9 6 13 11 9 11 -5 0 -5 5 -2 11 9 14
50 7 50 -9z m255 8 c0 -5 -10 -10 -22 -9 -22 0 -22 1 -3 9 11 5 21 9 23 9 1 1
2 -3 2 -9z m-140 -40 c0 -5 -5 -10 -11 -10 -5 0 -7 5 -4 10 3 6 8 10 11 10 2
0 4 -4 4 -10z m-5 -30 c4 -6 -8 -10 -27 -11 -18 0 -46 -3 -63 -5 -16 -3 -26
-2 -22 2 4 4 26 11 50 15 23 3 45 7 49 8 4 0 10 -3 13 -9z m-135 -40 c0 -5 -4
-10 -9 -10 -6 0 -13 5 -16 10 -3 6 1 10 9 10 9 0 16 -4 16 -10z"/>
<path d="M160 1690 c0 -5 12 -10 26 -10 14 0 23 4 19 10 -3 6 -15 10 -26 10
-10 0 -19 -4 -19 -10z"/>
<path d="M720 1659 c0 -5 5 -7 10 -4 6 3 10 8 10 11 0 2 -4 4 -10 4 -5 0 -10
-5 -10 -11z"/>
<path d="M553 1586 c6 -16 -30 -27 -103 -31 -99 -5 -150 -17 -150 -34 0 -14
-16 -17 -107 -19 -60 -2 -111 -6 -115 -9 -5 -2 -8 -22 -8 -44 0 -38 -1 -39
-35 -39 l-35 0 0 -90 c0 -87 1 -90 23 -90 12 0 76 -5 141 -10 94 -8 121 -7
128 2 6 10 8 10 8 1 0 -18 17 -16 24 2 3 8 -1 21 -9 29 -25 25 -18 39 15 33
17 -4 30 -2 30 3 0 6 5 10 10 10 6 0 10 -6 10 -14 0 -7 11 -16 25 -18 14 -3
25 -1 25 4 0 6 7 8 15 4 8 -3 19 2 24 12 6 9 11 12 11 6 0 -13 146 -12 160 2
6 5 -17 8 -60 6 l-70 -4 0 131 0 131 43 0 c31 0 38 3 27 10 -11 7 -11 10 -2
10 7 0 10 5 7 10 -10 16 -38 12 -32 -4z m-269 -299 c3 4 6 1 6 -5 0 -7 -5 -12
-11 -12 -8 0 -8 -5 1 -15 19 -23 -1 -18 -27 7 -13 12 -23 16 -23 9 0 -7 -4 -9
-10 -6 -19 12 13 33 36 24 12 -4 25 -5 28 -2z"/>
<path d="M620 1591 c0 -6 5 -13 10 -16 6 -3 10 1 10 9 0 9 -4 16 -10 16 -5 0
-10 -4 -10 -9z"/>
<path d="M608 1553 c6 -2 18 -2 25 0 6 3 1 5 -13 5 -14 0 -19 -2 -12 -5z"/>
<path d="M665 1300 c-3 -5 -2 -10 4 -10 5 0 13 5 16 10 3 6 2 10 -4 10 -5 0
-13 -4 -16 -10z"/>
<path d="M390 1241 c0 -5 5 -13 10 -16 6 -3 10 -2 10 4 0 5 -4 13 -10 16 -5 3
-10 2 -10 -4z"/>
<path d="M490 1232 c0 -5 7 -9 15 -9 8 0 12 4 9 9 -3 4 -9 8 -15 8 -5 0 -9 -4
-9 -8z"/>
<path d="M662 1174 c3 -17 21 -21 26 -6 1 5 -4 12 -13 16 -11 4 -15 1 -13 -10z"/>
<path d="M13 1003 c9 -2 23 -2 30 0 6 3 -1 5 -18 5 -17 0 -22 -2 -12 -5z"/>
<path d="M5572 815 c0 -16 2 -22 5 -12 2 9 2 23 0 30 -3 6 -5 -1 -5 -18z"/>
<path d="M1660 39 c0 -5 5 -7 10 -4 6 3 10 8 10 11 0 2 -4 4 -10 4 -5 0 -10
-5 -10 -11z"/>
<path d="M1600 10 c-13 -8 -12 -10 3 -10 9 0 17 5 17 10 0 12 -1 12 -20 0z"/>
</g>
</svg>
