<?xml version="1.0" standalone="no"?>
<!DOCTYPE svg PUBLIC "-//W3C//DTD SVG 20010904//EN"
 "http://www.w3.org/TR/2001/REC-SVG-20010904/DTD/svg10.dtd">
<svg version="1.0" xmlns="http://www.w3.org/2000/svg"
 width="256.000000pt" height="197.000000pt" viewBox="0 0 256.000000 197.000000"
 preserveAspectRatio="xMidYMid meet">

<g transform="translate(0.000000,197.000000) scale(0.100000,-0.100000)"
fill="#000000" stroke="none">
<path d="M0 985 l0 -985 1280 0 1280 0 0 985 0 985 -1280 0 -1280 0 0 -985z
m1394 667 c70 -118 125 -219 123 -225 -2 -6 -59 82 -126 196 -68 114 -126 207
-130 207 -3 0 -50 -75 -105 -167 -125 -213 -146 -246 -153 -239 -3 3 43 88
102 188 130 220 155 261 160 256 1 -1 60 -99 129 -216z m-899 -377 c0 -29 -1
-30 -52 -33 l-53 -3 0 -165 0 -164 -45 0 -45 0 0 165 0 165 -55 0 -55 0 0 35
0 36 152 -3 153 -3 0 -30z m177 -152 c2 -104 2 -194 0 -200 -3 -8 -21 -13 -43
-13 l-39 0 0 200 0 200 39 0 39 0 4 -187z m368 152 l0 -35 -76 0 -75 0 3 -42
3 -43 68 -3 67 -3 0 -34 0 -35 -70 0 -70 0 0 -50 0 -50 75 0 75 0 0 -35 0 -35
-115 0 -115 0 0 200 0 200 115 0 115 0 0 -35z m341 12 c32 -21 49 -57 49 -103
0 -28 -8 -44 -35 -71 l-35 -35 55 -80 c30 -44 55 -81 55 -84 0 -2 -21 -4 -47
-4 l-48 1 -44 74 c-35 59 -50 75 -68 75 -22 0 -23 -3 -23 -75 l0 -75 -45 0
-45 0 0 201 0 201 103 -4 c75 -3 109 -8 128 -21z m439 -177 l0 -200 -45 0 -45
0 0 193 c0 107 3 197 7 200 3 4 24 7 45 7 l38 0 0 -200z m220 0 l0 -200 -45 0
-45 0 0 200 0 200 45 0 45 0 0 -200z m220 0 l0 -200 -45 0 -45 0 0 200 0 200
45 0 45 0 0 -200z m-1880 -385 c0 -12 -14 -15 -65 -15 l-65 0 0 -55 0 -55 60
0 c47 0 60 -3 60 -15 0 -12 -13 -15 -60 -15 l-60 0 0 -65 c0 -58 -2 -65 -20
-65 -19 0 -20 7 -20 150 l0 150 85 0 c69 0 85 -3 85 -15z m276 -130 c29 -77
54 -144 54 -148 0 -5 -7 -7 -16 -5 -9 2 -23 21 -32 43 -20 50 -26 55 -85 55
l-49 0 -21 -50 c-14 -33 -27 -50 -39 -50 -17 0 -16 3 3 53 12 28 36 92 55 141
19 48 37 92 40 98 17 27 40 -8 90 -137z m363 136 c27 -17 1 -30 -52 -24 -43 4
-57 1 -79 -16 -57 -45 -57 -157 0 -202 23 -18 36 -20 80 -16 46 5 53 3 50 -11
-2 -13 -16 -18 -57 -20 -68 -4 -105 11 -132 55 -31 49 -24 160 11 199 14 14
34 30 45 34 27 12 117 12 134 1z m166 -141 c0 -130 -2 -145 -17 -148 -17 -3
-18 9 -18 148 0 139 1 151 18 148 15 -3 17 -18 17 -148z m185 15 l0 -135 65 0
c51 0 65 -3 65 -15 0 -12 -16 -15 -85 -15 l-85 0 0 150 c0 143 1 150 20 150
19 0 20 -7 20 -135z m280 -16 c0 -138 -1 -150 -17 -147 -16 3 -18 20 -21 151
-2 142 -2 147 18 147 19 0 20 -6 20 -151z m330 136 c0 -11 -12 -15 -45 -15
l-45 0 0 -135 c0 -128 -1 -135 -20 -135 -19 0 -20 7 -20 135 l0 135 -45 0
c-33 0 -45 4 -45 15 0 12 19 15 110 15 91 0 110 -3 110 -15z m146 -55 c20 -38
40 -70 43 -70 4 0 22 32 41 70 23 48 39 70 52 70 10 0 18 -3 18 -6 0 -3 -20
-43 -45 -88 -40 -73 -45 -91 -45 -145 0 -54 -2 -61 -20 -61 -18 0 -20 7 -20
59 0 51 -6 69 -45 140 -49 88 -53 101 -31 101 8 0 31 -31 52 -70z m-1818 -437
c-28 -49 -55 -94 -61 -101 -7 -9 18 -12 122 -12 81 0 131 -4 131 -10 0 -6 -54
-10 -141 -10 -126 0 -140 2 -135 16 14 38 117 204 126 204 5 0 -13 -39 -42
-87z m2000 -18 c34 -57 62 -107 62 -110 0 -3 -67 -5 -150 -5 -93 0 -150 4
-150 10 0 6 52 10 135 10 74 0 135 4 135 8 0 4 -13 28 -28 53 -56 90 -83 139
-74 139 5 0 37 -47 70 -105z m-1575 -21 c13 -14 -5 -31 -29 -26 -33 6 -54 -14
-54 -53 0 -40 21 -59 55 -51 18 5 25 2 25 -8 0 -33 -63 -34 -95 -1 -53 52 -18
145 54 145 21 0 40 -3 44 -6z m157 -9 c0 -10 -10 -15 -30 -15 -38 0 -41 -27
-3 -32 39 -4 42 -28 4 -28 -27 0 -31 -4 -31 -26 0 -22 4 -25 28 -22 19 2 27
-2 27 -12 0 -11 -12 -15 -45 -15 l-45 0 -3 83 -3 82 51 0 c38 0 50 -4 50 -15z
m160 -5 c24 -24 24 -29 4 -58 -14 -20 -14 -24 6 -53 12 -16 20 -33 17 -36 -11
-11 -38 7 -55 37 -22 38 -30 38 -34 -2 -2 -21 -8 -33 -18 -33 -12 0 -16 17
-18 83 l-3 82 41 0 c27 0 47 -7 60 -20z m190 5 c0 -8 -9 -15 -20 -15 -17 0
-19 -8 -22 -67 -2 -55 -6 -68 -20 -71 -16 -3 -18 5 -18 67 0 63 -2 71 -19 71
-10 0 -21 7 -25 15 -4 12 6 15 59 15 51 0 65 -3 65 -15z m90 -71 c0 -76 -2
-85 -17 -82 -15 3 -18 16 -21 86 -3 77 -2 82 18 82 19 0 20 -6 20 -86z m160
71 c0 -10 -10 -15 -30 -15 -23 0 -30 -4 -30 -20 0 -16 7 -20 30 -20 20 0 30
-5 30 -15 0 -10 -10 -15 -30 -15 -28 0 -30 -3 -30 -35 0 -24 -5 -35 -15 -35
-12 0 -15 16 -15 85 l0 85 45 0 c33 0 45 -4 45 -15z m98 -67 c-2 -66 -6 -83
-18 -83 -12 0 -16 17 -18 83 -3 77 -2 82 18 82 20 0 21 -5 18 -82z m162 67 c0
-10 -10 -15 -30 -15 -38 0 -41 -27 -3 -32 36 -4 41 -26 6 -30 -20 -2 -28 -9
-28 -23 0 -11 6 -21 13 -21 6 -1 19 -2 27 -3 8 0 15 -8 15 -16 0 -11 -12 -15
-45 -15 l-45 0 0 85 0 85 45 0 c33 0 45 -4 45 -15z m174 -6 c20 -16 26 -29 26
-60 0 -47 -24 -75 -74 -85 -61 -11 -66 -4 -66 86 l0 80 44 0 c29 0 52 -7 70
-21z"/>
<path d="M1240 1185 c0 -53 1 -55 28 -55 40 0 72 26 72 59 0 30 -31 51 -75 51
-24 0 -25 -3 -25 -55z"/>
<path d="M562 634 c-13 -31 -21 -59 -18 -61 2 -2 22 -3 44 -1 l39 3 -22 58
-22 59 -21 -58z"/>
<path d="M990 150 c0 -15 5 -20 18 -18 9 2 17 10 17 18 0 8 -8 16 -17 18 -13
2 -18 -3 -18 -18z"/>
<path d="M1850 114 c0 -53 1 -55 23 -49 33 11 40 21 39 56 -1 33 -15 49 -44
49 -15 0 -18 -9 -18 -56z"/>
</g>
</svg>
