<?xml version="1.0" standalone="no"?>
<!DOCTYPE svg PUBLIC "-//W3C//DTD SVG 20010904//EN"
 "http://www.w3.org/TR/2001/REC-SVG-20010904/DTD/svg10.dtd">
<svg version="1.0" xmlns="http://www.w3.org/2000/svg"
 width="2264.000000pt" height="1272.000000pt" viewBox="0 0 2264.000000 1272.000000"
 preserveAspectRatio="xMidYMid meet">

<g transform="translate(0.000000,1272.000000) scale(0.100000,-0.100000)"
fill="#000000" stroke="none">
<path d="M0 6360 l0 -6360 11320 0 11320 0 0 6360 0 6360 -11320 0 -11320 0 0
-6360z m9630 6057 c0 -17 -20 -37 -37 -37 -7 0 -17 9 -23 19 -14 28 13 55 41
41 10 -6 19 -16 19 -23z m1412 -254 c22 -20 24 -66 2 -87 -35 -36 -104 -7
-104 42 0 54 62 81 102 45z m5713 -575 c33 -15 28 -40 -7 -45 -25 -3 -28 -1
-28 27 0 34 0 34 35 18z m-4255 -608 c0 -5 -4 -10 -10 -10 -5 0 -10 5 -10 10
0 6 5 10 10 10 6 0 10 -4 10 -10z m3697 -96 c6 -16 -15 -37 -29 -28 -4 3 -8
14 -8 25 0 23 28 26 37 3z m-3497 -364 c0 -5 -4 -10 -10 -10 -5 0 -10 5 -10
10 0 6 5 10 10 10 6 0 10 -4 10 -10z m633 -457 c9 -9 -13 -34 -24 -27 -14 8
-11 34 4 34 8 0 17 -3 20 -7z m1462 -63 c3 -5 -1 -10 -10 -10 -9 0 -13 5 -10
10 3 6 8 10 10 10 2 0 7 -4 10 -10z m-9157 -179 c5 -30 -10 -45 -37 -36 -13 4
-21 15 -21 30 0 40 53 46 58 6z m1736 -1007 c9 -8 16 -19 16 -24 0 -5 -7 -16
-16 -24 -8 -9 -19 -16 -24 -16 -5 0 -16 7 -24 16 -9 8 -16 19 -16 24 0 5 7 16
16 24 8 9 19 16 24 16 5 0 16 -7 24 -16z m8891 -10 c0 -10 -8 -20 -17 -22 -18
-3 -26 27 -11 42 12 11 28 0 28 -20z m-6341 -126 c8 -14 6 -22 -10 -39 -18
-17 -25 -19 -43 -10 -20 11 -29 50 -14 65 12 12 56 2 67 -16z m6466 -93 c0 -8
-4 -15 -9 -15 -13 0 -22 16 -14 24 11 11 23 6 23 -9z m-497 -161 c9 -10 -4
-34 -19 -34 -8 0 -14 9 -14 20 0 19 19 27 33 14z m1267 -294 c0 -5 -7 -10 -15
-10 -8 0 -15 5 -15 10 0 6 7 10 15 10 8 0 15 -4 15 -10z m-1940 -210 c0 -13
-7 -20 -20 -20 -13 0 -20 7 -20 20 0 13 7 20 20 20 13 0 20 -7 20 -20z m-750
-125 c0 -18 -5 -25 -19 -25 -11 0 -23 5 -26 10 -11 18 3 40 25 40 15 0 20 -7
20 -25z m-6680 -615 c0 -5 -4 -10 -10 -10 -5 0 -10 5 -10 10 0 6 5 10 10 10 6
0 10 -4 10 -10z m3140 -141 c0 -5 -7 -9 -15 -9 -15 0 -20 12 -9 23 8 8 24 -1
24 -14z m-3330 -104 c0 -8 -7 -15 -15 -15 -8 0 -15 7 -15 15 0 8 7 15 15 15 8
0 15 -7 15 -15z m-854 -126 c3 -6 0 -18 -9 -26 -18 -18 -37 -9 -37 18 0 21 34
27 46 8z m10302 -957 c3 -16 -2 -22 -17 -22 -24 0 -35 15 -27 36 9 23 40 13
44 -14z m-9230 -45 c2 -10 -3 -17 -12 -17 -18 0 -29 16 -21 31 9 14 29 6 33
-14z m1607 -88 c0 -17 -6 -24 -20 -24 -23 0 -33 34 -13 46 20 13 33 5 33 -22z
m4185 -232 c0 -8 -3 -17 -7 -20 -9 -9 -34 13 -27 24 8 14 34 11 34 -4z m3978
-40 c4 -20 -25 -34 -40 -19 -15 15 -1 44 19 40 10 -2 19 -11 21 -21z m-8088
-17 c0 -5 -4 -10 -10 -10 -5 0 -10 5 -10 10 0 6 5 10 10 10 6 0 10 -4 10 -10z
m2317 -437 c-17 -17 -19 -17 -33 2 -13 18 -13 21 3 32 14 11 20 11 32 -2 14
-13 13 -17 -2 -32z m2101 10 c-4 -22 -22 -20 -26 1 -2 10 3 16 13 16 10 0 15
-7 13 -17z m1682 -179 c0 -9 -5 -14 -12 -12 -18 6 -21 28 -4 28 9 0 16 -7 16
-16z m-5785 -294 c10 -17 -5 -49 -26 -55 -26 -8 -49 11 -49 41 0 41 53 50 75
14z m-1315 -70 c0 -5 -4 -10 -10 -10 -5 0 -10 5 -10 10 0 6 5 10 10 10 6 0 10
-4 10 -10z m5500 -85 c0 -8 -7 -15 -15 -15 -8 0 -15 7 -15 15 0 8 7 15 15 15
8 0 15 -7 15 -15z m-980 -375 c0 -5 -7 -10 -15 -10 -8 0 -15 5 -15 10 0 6 7
10 15 10 8 0 15 -4 15 -10z m88 -32 c19 -19 14 -56 -8 -68 -38 -21 -80 22 -60
61 12 21 50 25 68 7z m1728 -79 c10 -17 -13 -36 -27 -22 -12 12 -4 33 11 33 5
0 12 -5 16 -11z m-1606 -44 c0 -8 -4 -15 -9 -15 -13 0 -22 16 -14 24 11 11 23
6 23 -9z m3695 -301 c0 -10 -8 -20 -18 -22 -22 -4 -35 27 -16 39 20 12 34 5
34 -17z m-11990 -24 c3 -5 1 -10 -4 -10 -6 0 -11 5 -11 10 0 6 2 10 4 10 3 0
8 -4 11 -10z m2285 -324 c0 -3 -4 -8 -10 -11 -5 -3 -10 -1 -10 4 0 6 5 11 10
11 6 0 10 -2 10 -4z m4068 -94 c2 -7 -3 -12 -12 -12 -9 0 -16 7 -16 16 0 17
22 14 28 -4z m-788 -22 c0 -5 -4 -10 -10 -10 -5 0 -10 5 -10 10 0 6 5 10 10
10 6 0 10 -4 10 -10z m288 -273 c6 -28 -16 -49 -39 -36 -22 11 -24 30 -7 47
17 17 42 11 46 -11z m1585 -123 c9 -9 -4 -34 -18 -34 -14 0 -27 25 -18 34 4 3
12 6 18 6 6 0 14 -3 18 -6z m777 -334 c0 -5 -4 -10 -10 -10 -5 0 -10 5 -10 10
0 6 5 10 10 10 6 0 10 -4 10 -10z m-832 -93 c2 -11 -3 -17 -16 -17 -20 0 -36
23 -24 34 11 12 37 1 40 -17z m-5998 -467 c13 -24 -2 -60 -25 -60 -15 0 -45
26 -45 40 0 14 30 40 45 40 8 0 19 -9 25 -20z m7844 -856 c9 -8 16 -22 16 -29
0 -13 -26 -45 -36 -45 -19 0 -44 24 -44 43 0 43 35 60 64 31z m-4094 -318 c0
-3 -4 -8 -10 -11 -5 -3 -10 -1 -10 4 0 6 5 11 10 11 6 0 10 -2 10 -4z m-200
-487 c0 -5 -7 -9 -15 -9 -15 0 -20 12 -9 23 8 8 24 -1 24 -14z"/>
</g>
</svg>
