<svg xmlns="http://www.w3.org/2000/svg" viewBox="0 0 24 24" version="1.1">
	<path d="M11.064 1.274184C8.860488 1.405128 6.694776 2.2530240000000004 4.96512 3.662016C2.680224 5.523288 1.2732240000000001 8.196624 1.031496 11.136000000000001C0.9991920000000001 11.528808000000001 0.99936 12.511296 1.031784 12.876C1.190472 14.660112 1.706928 16.214664 2.634456 17.7C2.8434 18.034608000000002 3.071976 18.361416 3.1778399999999998 18.476928C3.454968 18.779328 3.9447360000000002 18.651312 4.033824 18.253224000000003C4.074072 18.073392000000002 4.037016 17.975832 3.801864 17.64252C3.537576 17.267856000000002 3.2633520000000003 16.814136 3.06264 16.419432C2.9754 16.247832000000002 2.904 16.10196 2.904 16.095264C2.904 16.088568 3.0920400000000003 16.079688 3.32184 16.075536L3.739704 16.068 3.83184 15.993768000000001C4.0684320000000005 15.803208 4.11696 15.533976000000001 3.9568079999999997 15.300264C3.823128 15.105144 3.683856 15.072000000000001 2.9977679999999998 15.072000000000001L2.498088 15.072000000000001 2.435448 14.874C1.984416 13.448015999999999 1.8858959999999998 11.777784 2.162208 10.241256C2.22264 9.90516 2.328984 9.467712 2.424552 9.162L2.49768 8.928 4.945296 8.928L7.392912000000001 8.928 7.380768 8.982C7.357104 9.087264000000001 7.274400000000001 9.73728 7.237992000000001 10.104000000000001C7.1704799999999995 10.784088 7.152 11.234472 7.152 12.198552000000001C7.152 13.101863999999999 7.154568000000001 13.158959999999999 7.199304000000001 13.246632C7.348848 13.539792 7.749792 13.612512 7.984536 13.389072C8.148528 13.232976 8.14452 13.265088 8.162495999999999 11.964C8.180664 10.650696 8.222208 10.103952 8.37912 9.114L8.408616 8.928 11.738688000000002 8.928C14.889287999999999 8.928 15.069456 8.930256 15.081648000000001 8.97C15.105528000000001 9.047808 15.213336 9.848904 15.250416 10.224C15.311256000000002 10.839432 15.335976 11.439960000000001 15.335976 12.303263999999999L15.336 13.122528 15.403056 13.25088C15.580632 13.590792 16.036296 13.616928 16.258944 13.299984000000002L16.332 13.195968 16.339872 12.423984C16.351560000000003 11.278224 16.287216 10.205856 16.150560000000002 9.26868C16.124952 9.093048 16.104 8.944560000000001 16.104 8.93868C16.104 8.9328 17.203464 8.928 18.547272 8.928L20.990544 8.928 21.042216 9.09C21.124488 9.347904 21.25728 9.877080000000001 21.31164 10.163472C21.435432000000002 10.815792 21.461064 11.125752 21.477312 12.168000000000001C21.494256 13.25376 21.490848 13.228296 21.639264 13.376736000000001C21.741528000000002 13.478976000000001 21.833496 13.516968 21.981744 13.51824C22.197 13.520088 22.371384 13.408632 22.450848 13.218432000000002C22.481832 13.144319999999999 22.488 12.998376000000002 22.488 12.340248C22.488 11.582568 22.469856 11.181912 22.414416 10.716000000000001C22.136784 8.382552 21.09852 6.209016 19.452168 4.51476C17.251535999999998 2.250096 14.237376000000001 1.08564 11.064 1.274184M11.155776000000001 2.27376L10.995576 2.2821119999999997 10.853352000000001 2.503056C10.001472 3.8266320000000005 9.24072 5.577816 8.776392 7.284C8.704536000000001 7.548 8.638200000000001 7.799088 8.628984 7.8420000000000005L8.612184000000001 7.92 11.737152 7.92L14.862143999999999 7.92 14.8476 7.83C14.782775999999998 7.428816 14.357424 6.074592 14.068895999999999 5.350872C13.650408000000002 4.30116 13.083383999999999 3.17724 12.629591999999999 2.497944L12.492 2.2920000000000003 12.312 2.277144C12.123000000000001 2.26152 11.429136 2.259504 11.155776000000001 2.27376M9.34392 2.556768C7.597344 3.008208 6.033096 3.9113520000000004 4.786536 5.188104C4.212864 5.775696 3.776976 6.33972 3.373944 7.015944C3.2139120000000005 7.284479999999999 2.904 7.872504 2.904 7.907640000000001C2.904 7.914432 3.9558 7.92 5.241312000000001 7.92L7.5786240000000005 7.92 7.656264000000001 7.59C7.986936 6.1848 8.5788 4.58136 9.241200000000001 3.296232C9.371544 3.043344 9.52668 2.7544560000000002 9.585912 2.654232C9.645168 2.554008 9.686088 2.472696 9.676824 2.4735359999999997C9.667584 2.4743999999999997 9.517776000000001 2.51184 9.34392 2.556768M13.856471999999998 2.576424C14.648568 3.931656 15.341184 5.662152 15.769392 7.356L15.908928 7.908 18.238464 7.9141200000000005C19.812336000000002 7.918248000000001 20.568 7.9122959999999996 20.568 7.8957120000000005C20.568 7.8627839999999996 20.324808 7.37892 20.188152 7.140000000000001C19.432368 5.818512 18.256680000000003 4.590504 16.968 3.776568C16.058568 3.202176 14.965848000000001 2.740632 13.997136000000001 2.5217519999999998L13.798272 2.4768239999999997 13.856471999999998 2.576424M6.4648080000000006 15.615696C6.38244 15.63324 6.213216 15.793128000000001 6.1652640000000005 15.898655999999999C6.123024 15.991655999999999 6.121056 16.138032 6.121056 19.176000000000002C6.121056 22.218144 6.122976 22.360224000000002 6.165431999999999 22.453704000000002C6.220128000000001 22.574112 6.3642959999999995 22.696608 6.4919519999999995 22.73112C6.646896 22.773 7.958735999999999 22.743408000000002 8.184000000000001 22.692936C8.93916 22.523736 9.582168000000001 22.01808 9.924144 21.324456C10.188312 20.788656 10.206672000000001 20.6322 10.194624000000001 19.02L10.185288 17.772000000000002 10.121640000000001 17.536488000000002C10.039776 17.233512 9.927984 16.977696 9.778896 16.75212C9.436032 16.233408 8.892479999999999 15.841584000000001 8.290296 15.679128C8.057688 15.616368000000001 8.033688000000001 15.614712 7.284 15.609816C6.861599999999999 15.607056 6.492960000000001 15.609696 6.4648080000000006 15.615696M12.563784 15.64476C12.443567999999999 15.699384 12.322296 15.835152 12.287952 15.953591999999999C12.269400000000001 16.017504 12.263808000000001 16.976256000000003 12.268872 19.225752L12.276 22.407528000000003 12.342216 22.50756C12.378623999999999 22.562568 12.453432000000001 22.637376000000003 12.508464000000002 22.673784C12.592464000000001 22.729392 12.634056 22.740000000000002 12.768 22.740000000000002C12.901944 22.740000000000002 12.943536 22.729392 13.027536 22.673784C13.082568 22.637376000000003 13.157376000000001 22.562568 13.193783999999999 22.50756L13.26 22.407528000000003 13.267512 20.329776L13.275024 18.252 14.359512 20.41128C15.53964 22.760976 15.484895999999999 22.668024 15.726 22.731792000000002C15.938304 22.787952 16.175496000000003 22.678368000000003 16.28232 22.474728C16.331736 22.380528 16.332048 22.362528 16.339104000000003 19.212C16.344096 16.975848 16.33848 16.017408000000003 16.320024 15.953591999999999C16.263312000000003 15.757776 16.049927999999998 15.601056 15.84 15.601056C15.629544000000001 15.601056 15.415536 15.758591999999998 15.361439999999998 15.953351999999999C15.344832000000002 16.013112 15.335784 16.734768000000003 15.334871999999999 18.072L15.33348 20.1 14.260728 17.959536C13.670736000000002 16.782263999999998 13.161 15.789936 13.128 15.754368000000001C12.992016 15.607728 12.749136000000002 15.560568 12.563784 15.64476M20.093712 15.626280000000001C19.338383999999998 15.754392 18.682536 16.363008 18.47664 17.126928C18.404448 17.394792000000002 18.404712 17.86188 18.477216000000002 18.132C18.674976 18.86868 19.223328 19.416696 19.956 19.609848C20.10816 19.649976000000002 20.257584 19.664160000000003 20.676000000000002 19.678224C21.281736000000002 19.698576 21.381240000000002 19.723152 21.608832000000003 19.908528C21.99024 20.219231999999998 22.100568 20.74884 21.876144 21.191736000000002C21.8058 21.330528 21.611832000000003 21.527736 21.463536 21.611232C21.246192 21.733584 21.134784 21.743136000000003 19.919088 21.743592C18.808824 21.744 18.801528 21.744312 18.695424 21.798000000000002C18.321768000000002 21.987023999999998 18.322128 22.496928 18.696024 22.687128L18.828 22.754256 20.052 22.746072C21.229752 22.7382 21.283248 22.735872 21.468 22.68456C22.391280000000002 22.42812 22.992072 21.656256000000003 22.993992 20.723976C22.994568 20.443056 22.984199999999998 20.364312 22.914936 20.124C22.77936 19.653648 22.42512 19.203 21.991464 18.949152C21.637248 18.741792 21.338231999999998 18.673176 20.784 18.672C20.175264 18.670728 19.973088 18.609336 19.716 18.347687999999998C19.218312 17.841216 19.378895999999997 17.007047999999998 20.033784 16.696824L20.196 16.62 21.156 16.607544C21.808488 16.599096 22.136280000000003 16.58616 22.179336 16.567152C22.550472 16.4034 22.593192000000002 15.908544000000001 22.256256 15.675744L22.164 15.612 21.192 15.608424000000001C20.657400000000003 15.606456 20.163168 15.614496 20.093712 15.626280000000001M7.128 19.176000000000002L7.128 21.744 7.453008 21.744C8.103768 21.744 8.475096 21.592368 8.8308 21.181368C8.958504000000001 21.03384 9.039719999999999 20.89176 9.116592 20.681472L9.18 20.508 9.187344 19.258944C9.195672 17.846664 9.190896 17.793528000000002 9.025968 17.46C8.91444 17.234472 8.741568000000001 17.032296 8.535696 16.88664C8.225856 16.667424 8.00664 16.60884 7.494 16.60836L7.128 16.608 7.128 19.176000000000002" stroke="none" fill="currentColor" fill-rule="evenodd" stroke-width="0.024"></path>
</svg>