<?xml version="1.0" encoding="UTF-8"?>
<svg id="Camada_2" data-name="Camada 2" xmlns="http://www.w3.org/2000/svg" viewBox="0 0 403.53 92.15">
  <defs>
    <style>
      .cls-1 {
        fill: #fff;
      }
    </style>
  </defs>
  <g id="Camada_1-2" data-name="Camada 1">
    <path class="cls-1" d="M288.03,83.35c0-5.13,3.94-8.81,9.25-8.81,2.94,0,5.4,1.07,7.01,3.02l-2.53,2.34c-1.14-1.31-2.58-2-4.28-2-3.19,0-5.45,2.24-5.45,5.45s2.26,5.45,5.45,5.45c1.7,0,3.14-.68,4.28-2.02l2.53,2.34c-1.61,1.97-4.06,3.04-7.03,3.04-5.28,0-9.22-3.68-9.22-8.81Z"/>
    <path class="cls-1" d="M313.27,74.83h3.94v13.82h8.54v3.21h-12.48v-17.03Z"/>
    <path class="cls-1" d="M332.94,83.35c0-5.06,3.94-8.81,9.32-8.81s9.32,3.72,9.32,8.81-3.97,8.81-9.32,8.81-9.32-3.75-9.32-8.81ZM347.59,83.35c0-3.24-2.29-5.45-5.33-5.45s-5.33,2.21-5.33,5.45,2.29,5.45,5.33,5.45,5.33-2.21,5.33-5.45Z"/>
    <path class="cls-1" d="M360.74,84.37v-9.54h3.94v9.39c0,3.24,1.41,4.57,3.8,4.57s3.8-1.34,3.8-4.57v-9.39h3.89v9.54c0,5.01-2.87,7.79-7.71,7.79s-7.71-2.77-7.71-7.79Z"/>
    <path class="cls-1" d="M386.4,74.83h7.74c5.57,0,9.39,3.36,9.39,8.52,0,5.16-3.82,8.52-9.39,8.52h-7.74v-17.03ZM393.94,88.63c3.38,0,5.6-2.02,5.6-5.28s-2.21-5.28-5.6-5.28h-3.6v10.56h3.6Z"/>
    <path class="cls-1" d="M90.97,36.25l8.36,16.83h-10.33l-7.1-14.64c-.94.05-1.76.05-2.35.05h-10.09v14.59h-9.53V9.26h9.53v.04c2.33-.01,9.25-.04,11.85-.04,5.27,0,16.96-.02,16.96,14.64,0,7.57-3.36,10.31-7.31,12.36ZM89.44,23.87c0-6.08-5.75-6.08-8.71-6.08h-11.26v12.18h11.12c2.72,0,8.86.04,8.86-6.1Z"/>
    <path class="cls-1" d="M282.29,9.26v8.99l-28.26,25v1.12h28.26v8.74h-42.65v-9.02l28.49-25.2v-.94h-28.49v-8.7h42.65Z"/>
    <path class="cls-1" d="M334.74,9.25v8.61h-26.49v9h26.49v8.61h-26.49v8.89h26.49v8.72h-36.02V9.25h36.02Z"/>
    <path class="cls-1" d="M14.38,9.28L0,53.11h9.88l1.21-3.77h22.04l1.28,3.77h9.88L29.3,9.28h-14.93ZM13.84,40.77l7.32-22.84h1.36l7.72,22.84H13.84Z"/>
    <path class="cls-1" d="M196.33,9.28l-14.38,43.83h9.88l1.21-3.77h22.04l1.28,3.77h9.88l-14.98-43.83h-14.93ZM195.79,40.77l7.32-22.84h1.36l7.72,22.84h-16.4Z"/>
    <path class="cls-1" d="M142.42,44.36l8.73-35.11h16.35v43.85h-9.53V20.46s-.93,0-.93,0l-8.36,32.62h-13.67s-8.36-32.62-8.36-32.62h-.93v32.65h-9.53V9.25h16.35l8.73,35.11h1.14Z"/>
    <path class="cls-1" d="M378.42,44.36l8.73-35.11h16.35v43.85h-9.53V20.46s-.93,0-.93,0l-8.36,32.62h-13.67s-8.36-32.62-8.36-32.62h-.93v32.65h-9.53V9.25h16.35l8.73,35.11h1.14Z"/>
    <rect class="cls-1" x="319.45" width="15.05" height="5.21"/>
  </g>
</svg>