<?xml version="1.0" encoding="UTF-8"?>
<svg id="Camada_2" data-name="Camada 2" xmlns="http://www.w3.org/2000/svg" viewBox="0 0 434.57 57.19">
  <defs>
    <style>
      .cls-1 {
        fill: #1d315c;
      }
    </style>
  </defs>
  <g id="Camada_1-2" data-name="Camada 1">
    <g>
      <g>
        <path class="cls-1" d="M97.97,39.04l9.01,18.13h-11.13l-7.65-15.77c-1.01.05-1.89.06-2.53.06h-10.87v15.72h-10.27V9.97h10.27v.04c2.51-.01,9.97-.04,12.76-.04,5.67,0,18.27-.02,18.27,15.76,0,8.15-3.62,11.1-7.87,13.31ZM96.32,25.71c0-6.55-6.19-6.55-9.38-6.55h-12.13v13.12h11.97c2.93,0,9.54.04,9.54-6.57Z"/>
        <path class="cls-1" d="M304.03,9.97v9.69l-30.43,26.93v1.2h30.43v9.41h-45.94v-9.71l30.68-27.14v-1.01h-30.68v-9.37h45.94Z"/>
        <path class="cls-1" d="M360.52,9.97v9.28h-28.53v9.69h28.53v9.28h-28.53v9.57h28.53v9.4h-38.79V9.97h38.79Z"/>
        <path class="cls-1" d="M15.48,9.99L0,57.19h10.64l1.3-4.06h23.74l1.37,4.06h10.64L31.56,9.99H15.48ZM14.9,43.91l7.89-24.59h1.46l8.31,24.59H14.9Z"/>
        <path class="cls-1" d="M211.45,9.99l-15.48,47.2h10.64l1.3-4.06h23.74l1.37,4.06h10.64l-16.14-47.2h-16.08ZM210.87,43.91l7.89-24.59h1.46l8.31,24.59h-17.66Z"/>
        <path class="cls-1" d="M153.39,47.78l9.4-37.81h17.61v47.23h-10.27V22.03s-1,0-1,0l-9,35.14h-14.72s-9-35.14-9-35.14h-1v35.16h-10.27V9.97h17.61l9.4,37.81h1.23Z"/>
        <path class="cls-1" d="M407.56,47.78l9.4-37.81h17.61v47.23h-10.27V22.03s-1,0-1,0l-9,35.14h-14.72s-9-35.14-9-35.14h-1v35.16h-10.27V9.97h17.61l9.4,37.81h1.23Z"/>
      </g>
      <rect class="cls-1" x="344.05" width="16.21" height="5.61"/>
    </g>
  </g>
</svg>