<?xml version="1.0" encoding="UTF-8"?>
<svg id="Camada_2" data-name="Camada 2" xmlns="http://www.w3.org/2000/svg" viewBox="0 0 436.09 128.28">
  <defs>
    <style>
      .cls-1 {
        fill: #231f20;
      }
    </style>
  </defs>
  <g id="Camada_1-2" data-name="Camada 1">
    <path class="cls-1" d="M90.97,111.43l8.36,16.83h-10.33l-7.1-14.64c-.94.05-1.76.05-2.35.05h-10.09v14.59h-9.53v-43.83h9.53v.04c2.33-.01,9.25-.04,11.85-.04,5.27,0,16.96-.02,16.96,14.64,0,7.57-3.36,10.31-7.31,12.36ZM89.44,99.05c0-6.08-5.75-6.08-8.71-6.08h-11.26v12.18h11.12c2.72,0,8.86.04,8.86-6.1Z"/>
    <path class="cls-1" d="M282.29,84.43v8.99l-28.26,25v1.12h28.26v8.74h-42.65v-9.02l28.49-25.2v-.94h-28.49v-8.7h42.65Z"/>
    <path class="cls-1" d="M334.74,84.43v8.61h-26.49v9h26.49v8.61h-26.49v8.89h26.49v8.72h-36.02v-43.83h36.02Z"/>
    <path class="cls-1" d="M14.38,84.45L0,128.28h9.88l1.21-3.77h22.04l1.28,3.77h9.88l-14.98-43.83h-14.93ZM13.84,115.94l7.32-22.84h1.36l7.72,22.84H13.84Z"/>
    <path class="cls-1" d="M196.33,84.45l-14.38,43.83h9.88l1.21-3.77h22.04l1.28,3.77h9.88l-14.98-43.83h-14.93ZM195.79,115.94l7.32-22.84h1.36l7.72,22.84h-16.4Z"/>
    <path class="cls-1" d="M142.42,119.54l8.73-35.11h16.35v43.85h-9.53v-32.65s-.93,0-.93,0l-8.36,32.62h-13.67s-8.36-32.62-8.36-32.62h-.93v32.65h-9.53v-43.85h16.35l8.73,35.11h1.14Z"/>
    <path class="cls-1" d="M378.42,119.54l8.73-35.11h16.35v43.85h-9.53v-32.65s-.93,0-.93,0l-8.36,32.62h-13.67s-8.36-32.62-8.36-32.62h-.93v32.65h-9.53v-43.85h16.35l8.73,35.11h1.14Z"/>
    <polygon class="cls-1" points="436.09 55.88 403.75 0 403.74 .02 403.73 0 371.39 55.88 382.86 55.88 403.74 19.7 424.62 55.88 436.09 55.88"/>
    <polygon class="cls-1" points="417.7 55.88 403.74 31.75 403.74 31.76 403.74 31.75 389.77 55.88 417.7 55.88"/>
    <rect class="cls-1" x="319.45" y="75.18" width="15.05" height="5.21"/>
  </g>
</svg>