<?xml version="1.0" encoding="UTF-8"?>
<svg id="Camada_2" data-name="Camada 2" xmlns="http://www.w3.org/2000/svg" viewBox="0 0 434.46 166.7">
  <defs>
    <style>
      .cls-1 {
        fill: #fff;
      }

      .cls-2 {
        fill: #00a478;
      }
    </style>
  </defs>
  <g id="Camada_1-2" data-name="Camada 1">
    <path class="cls-1" d="M286.95,157.93c0-5.11,3.93-8.78,9.21-8.78,2.93,0,5.38,1.07,6.98,3.01l-2.52,2.33c-1.14-1.31-2.57-1.99-4.27-1.99-3.18,0-5.43,2.23-5.43,5.43s2.26,5.43,5.43,5.43c1.7,0,3.13-.68,4.27-2.01l2.52,2.33c-1.6,1.96-4.05,3.03-7.01,3.03-5.26,0-9.19-3.66-9.19-8.78Z"/>
    <path class="cls-1" d="M312.1,149.44h3.93v13.77h8.51v3.2h-12.44v-16.97Z"/>
    <path class="cls-1" d="M331.69,157.93c0-5.04,3.93-8.78,9.29-8.78s9.29,3.71,9.29,8.78-3.95,8.78-9.29,8.78-9.29-3.73-9.29-8.78ZM346.29,157.93c0-3.22-2.28-5.43-5.31-5.43s-5.31,2.21-5.31,5.43,2.28,5.43,5.31,5.43,5.31-2.21,5.31-5.43Z"/>
    <path class="cls-1" d="M359.39,158.95v-9.5h3.93v9.36c0,3.22,1.41,4.56,3.78,4.56s3.78-1.33,3.78-4.56v-9.36h3.88v9.5c0,4.99-2.86,7.76-7.68,7.76s-7.69-2.76-7.69-7.76Z"/>
    <path class="cls-1" d="M384.95,149.44h7.71c5.55,0,9.36,3.35,9.36,8.49,0,5.14-3.81,8.49-9.36,8.49h-7.71v-16.97ZM392.47,163.19c3.37,0,5.58-2.01,5.58-5.26s-2.21-5.26-5.58-5.26h-3.59v10.52h3.59Z"/>
    <path class="cls-1" d="M90.63,111.01l8.33,16.77h-10.3l-7.07-14.59c-.94.05-1.75.05-2.34.05h-10.05v14.54h-9.5v-43.67h9.5v.04c2.32-.01,9.22-.04,11.81-.04,5.25,0,16.9-.02,16.9,14.58,0,7.54-3.35,10.27-7.28,12.31ZM89.1,98.68c0-6.06-5.73-6.06-8.68-6.06h-11.22v12.13h11.07c2.71,0,8.83.04,8.83-6.08Z"/>
    <path class="cls-1" d="M281.24,84.11v8.96l-28.15,24.91v1.11h28.15v8.71h-42.49v-8.98l28.38-25.1v-.94h-28.38v-8.67h42.49Z"/>
    <path class="cls-1" d="M333.49,84.11v8.58h-26.39v8.96h26.39v8.58h-26.39v8.85h26.39v8.69h-35.89v-43.67h35.89Z"/>
    <path class="cls-1" d="M14.32,84.14L0,127.8h9.84l1.21-3.76h21.96l1.27,3.76h9.84l-14.93-43.67h-14.87ZM13.79,115.51l7.29-22.75h1.35l7.69,22.75H13.79Z"/>
    <path class="cls-1" d="M195.6,84.14l-14.32,43.67h9.84l1.21-3.76h21.96l1.27,3.76h9.84l-14.93-43.67h-14.87ZM195.06,115.51l7.29-22.75h1.35l7.69,22.75h-16.34Z"/>
    <path class="cls-1" d="M141.89,119.09l8.7-34.98h16.29v43.69h-9.5v-32.52s-.93,0-.93,0l-8.32,32.5h-13.62s-8.32-32.5-8.32-32.5h-.93v32.52h-9.5v-43.69h16.29l8.7,34.98h1.14Z"/>
    <path class="cls-1" d="M377,119.09l8.7-34.98h16.29v43.69h-9.5v-32.52s-.93,0-.93,0l-8.32,32.5h-13.62s-8.32-32.5-8.32-32.5h-.93v32.52h-9.5v-43.69h16.29l8.7,34.98h1.14Z"/>
    <polygon class="cls-2" points="434.46 55.67 402.24 0 402.23 .02 402.22 0 370.01 55.67 381.43 55.67 402.23 19.62 423.03 55.67 434.46 55.67"/>
    <polygon class="cls-2" points="416.14 55.67 402.24 31.63 402.23 31.64 402.23 31.63 388.32 55.67 416.14 55.67"/>
    <rect class="cls-1" x="318.26" y="74.89" width="14.99" height="5.19"/>
  </g>
</svg>