<?xml version="1.0" encoding="UTF-8"?>
<svg id="Camada_2" data-name="Camada 2" xmlns="http://www.w3.org/2000/svg" viewBox="0 0 469.67 138.16">
  <defs>
    <style>
      .cls-1 {
        fill: #1d315c;
      }

      .cls-2 {
        fill: #00a478;
      }
    </style>
  </defs>
  <g id="Camada_1-2" data-name="Camada 1">
    <g>
      <g>
        <path class="cls-1" d="M97.97,120.01l9.01,18.13h-11.13l-7.65-15.77c-1.01.05-1.89.06-2.53.06h-10.87v15.72h-10.27v-47.2h10.27v.04c2.51-.01,9.97-.04,12.76-.04,5.67,0,18.27-.02,18.27,15.76,0,8.15-3.62,11.1-7.87,13.31ZM96.32,106.67c0-6.55-6.19-6.55-9.38-6.55h-12.13v13.12h11.97c2.93,0,9.54.04,9.54-6.57Z"/>
        <path class="cls-1" d="M304.03,90.93v9.69l-30.43,26.93v1.2h30.43v9.41h-45.94v-9.71l30.68-27.14v-1.01h-30.68v-9.37h45.94Z"/>
        <path class="cls-1" d="M360.52,90.93v9.28h-28.53v9.69h28.53v9.28h-28.53v9.57h28.53v9.4h-38.79v-47.21h38.79Z"/>
        <path class="cls-1" d="M15.48,90.96L0,138.16h10.64l1.3-4.06h23.74l1.37,4.06h10.64l-16.14-47.2H15.48ZM14.9,124.87l7.89-24.59h1.46l8.31,24.59H14.9Z"/>
        <path class="cls-1" d="M211.45,90.96l-15.48,47.2h10.64l1.3-4.06h23.74l1.37,4.06h10.64l-16.14-47.2h-16.08ZM210.87,124.87l7.89-24.59h1.46l8.31,24.59h-17.66Z"/>
        <path class="cls-1" d="M153.39,128.74l9.4-37.81h17.61v47.23h-10.27v-35.16s-1,0-1,0l-9,35.14h-14.72s-9-35.14-9-35.14h-1v35.16h-10.27v-47.23h17.61l9.4,37.81h1.23Z"/>
        <path class="cls-1" d="M407.56,128.74l9.4-37.81h17.61v47.23h-10.27v-35.16s-1,0-1,0l-9,35.14h-14.72s-9-35.14-9-35.14h-1v35.16h-10.27v-47.23h17.61l9.4,37.81h1.23Z"/>
      </g>
      <g>
        <polygon class="cls-2" points="469.67 60.18 434.84 0 434.83 .02 434.82 0 399.99 60.18 412.35 60.18 434.83 21.21 457.32 60.18 469.67 60.18"/>
        <polygon class="cls-2" points="449.87 60.18 434.84 34.2 434.83 34.21 434.83 34.2 419.79 60.18 449.87 60.18"/>
      </g>
      <rect class="cls-1" x="344.05" y="80.96" width="16.21" height="5.61"/>
    </g>
  </g>
</svg>