<?xml version="1.0" encoding="UTF-8"?>
<svg id="Camada_2" data-name="Camada 2" xmlns="http://www.w3.org/2000/svg" viewBox="0 0 469.67 180.22">
  <defs>
    <style>
      .cls-1 {
        fill: #1d315c;
      }

      .cls-2 {
        fill: #00a478;
      }
    </style>
  </defs>
  <g id="Camada_1-2" data-name="Camada 1">
    <g>
      <g>
        <path class="cls-1" d="M310.21,170.73c0-5.53,4.25-9.49,9.96-9.49,3.17,0,5.82,1.15,7.55,3.25l-2.73,2.52c-1.23-1.42-2.78-2.15-4.61-2.15-3.43,0-5.87,2.41-5.87,5.87s2.44,5.87,5.87,5.87c1.83,0,3.38-.73,4.61-2.17l2.73,2.52c-1.73,2.12-4.38,3.28-7.57,3.28-5.69,0-9.93-3.96-9.93-9.49Z"/>
        <path class="cls-1" d="M337.4,161.56h4.25v14.89h9.2v3.46s-13.44,0-13.44,0v-18.35Z"/>
        <path class="cls-1" d="M358.58,170.73c0-5.45,4.25-9.49,10.04-9.49s10.04,4.01,10.04,9.49-4.27,9.49-10.04,9.49-10.04-4.03-10.04-9.49ZM374.35,170.73c0-3.49-2.46-5.87-5.74-5.87s-5.74,2.38-5.74,5.87,2.46,5.87,5.74,5.87,5.74-2.38,5.74-5.87Z"/>
        <path class="cls-1" d="M388.52,171.83v-10.27h4.25v10.12c0,3.49,1.52,4.93,4.09,4.93s4.09-1.44,4.09-4.93v-10.12h4.19v10.27c0,5.4-3.09,8.39-8.31,8.39s-8.31-2.99-8.31-8.39Z"/>
        <path class="cls-1" d="M416.15,161.56h8.33c6,0,10.12,3.62,10.12,9.17,0,5.56-4.12,9.17-10.12,9.17h-8.33v-18.35ZM424.27,176.42c3.64,0,6.03-2.17,6.03-5.69s-2.38-5.69-6.03-5.69h-3.88v11.37h3.88Z"/>
      </g>
      <g>
        <g>
          <path class="cls-1" d="M97.97,120.01l9.01,18.13h-11.13l-7.65-15.77c-1.01.05-1.89.06-2.53.06h-10.87v15.72h-10.27v-47.2h10.27v.04c2.51-.01,9.97-.04,12.76-.04,5.67,0,18.27-.02,18.27,15.76,0,8.15-3.62,11.1-7.87,13.31ZM96.32,106.67c0-6.55-6.19-6.55-9.38-6.55h-12.13v13.12h11.97c2.93,0,9.54.04,9.54-6.57Z"/>
          <path class="cls-1" d="M304.03,90.93v9.69l-30.43,26.93v1.2h30.43v9.41h-45.94v-9.71l30.68-27.14v-1.01h-30.68v-9.37h45.94Z"/>
          <path class="cls-1" d="M360.52,90.93v9.28h-28.53v9.69h28.53v9.28h-28.53v9.57h28.53v9.4h-38.79v-47.21h38.79Z"/>
          <path class="cls-1" d="M15.48,90.96L0,138.16h10.64l1.3-4.06h23.74l1.37,4.06h10.64l-16.14-47.2H15.48ZM14.9,124.87l7.89-24.59h1.46l8.31,24.59H14.9Z"/>
          <path class="cls-1" d="M211.45,90.96l-15.48,47.2h10.64l1.3-4.06h23.74l1.37,4.06h10.64l-16.14-47.2h-16.08ZM210.87,124.87l7.89-24.59h1.46l8.31,24.59h-17.66Z"/>
          <path class="cls-1" d="M153.39,128.74l9.4-37.81h17.61v47.23h-10.27v-35.16s-1,0-1,0l-9,35.14h-14.72s-9-35.14-9-35.14h-1v35.16h-10.27v-47.23h17.61l9.4,37.81h1.23Z"/>
          <path class="cls-1" d="M407.56,128.74l9.4-37.81h17.61v47.23h-10.27v-35.16s-1,0-1,0l-9,35.14h-14.72s-9-35.14-9-35.14h-1v35.16h-10.27v-47.23h17.61l9.4,37.81h1.23Z"/>
        </g>
        <g>
          <polygon class="cls-2" points="469.67 60.18 434.84 0 434.83 .02 434.82 0 399.99 60.18 412.35 60.18 434.83 21.21 457.32 60.18 469.67 60.18"/>
          <polygon class="cls-2" points="449.87 60.18 434.84 34.2 434.83 34.21 434.83 34.2 419.79 60.18 449.87 60.18"/>
        </g>
        <rect class="cls-1" x="344.05" y="80.96" width="16.21" height="5.61"/>
      </g>
    </g>
  </g>
</svg>