<?xml version="1.0" encoding="UTF-8"?>
<svg id="Camada_2" data-name="Camada 2" xmlns="http://www.w3.org/2000/svg" viewBox="0 0 114.76 136.99">
  <defs>
    <style>
      .cls-1 {
        fill: #fff;
      }

      .cls-2 {
        fill: #00a478;
      }
    </style>
  </defs>
  <g id="Camada_1-2" data-name="Camada 1">
    <g>
      <g>
        <path class="cls-1" d="M0,128.24c0-5.1,3.92-8.75,9.19-8.75,2.92,0,5.37,1.06,6.96,3l-2.52,2.32c-1.14-1.31-2.56-1.98-4.26-1.98-3.17,0-5.42,2.23-5.42,5.42s2.25,5.42,5.42,5.42c1.69,0,3.12-.68,4.26-2.01l2.52,2.32c-1.6,1.96-4.04,3.02-6.99,3.02-5.25,0-9.16-3.65-9.16-8.75Z"/>
        <path class="cls-1" d="M25.08,119.77h3.92v13.73h8.49v3.19h-12.4v-16.92Z"/>
        <path class="cls-1" d="M44.62,128.24c0-5.03,3.92-8.75,9.26-8.75s9.26,3.7,9.26,8.75-3.94,8.75-9.26,8.75-9.26-3.72-9.26-8.75ZM59.18,128.24c0-3.22-2.27-5.42-5.29-5.42s-5.29,2.2-5.29,5.42,2.27,5.42,5.29,5.42,5.29-2.2,5.29-5.42Z"/>
        <path class="cls-1" d="M72.24,129.25v-9.48h3.92v9.33c0,3.22,1.4,4.54,3.77,4.54s3.77-1.33,3.77-4.54v-9.33h3.87v9.48c0,4.98-2.85,7.74-7.66,7.74s-7.66-2.76-7.66-7.74Z"/>
        <path class="cls-1" d="M97.73,119.77h7.69c5.54,0,9.33,3.34,9.33,8.46,0,5.13-3.8,8.46-9.33,8.46h-7.69v-16.92ZM105.23,133.48c3.36,0,5.56-2.01,5.56-5.25s-2.2-5.25-5.56-5.25h-3.58v10.49h3.58Z"/>
      </g>
      <g>
        <polygon class="cls-2" points="114.76 99.12 57.4 0 57.38 .03 57.36 0 0 99.12 20.34 99.12 57.38 34.94 94.41 99.12 114.76 99.12"/>
        <polygon class="cls-2" points="82.15 99.12 57.39 56.33 57.38 56.34 57.37 56.33 32.6 99.12 82.15 99.12"/>
      </g>
    </g>
  </g>
</svg>